<?xml version="1.0" encoding="UTF-8"?>
<svg id="BG" xmlns="http://www.w3.org/2000/svg" xmlns:xlink="http://www.w3.org/1999/xlink" viewBox="0 0 1920 1080">
  <defs>
    <style>
      .cls-1 {
        opacity: .54;
        stroke: #5cbfe9;
        stroke-dasharray: 4.52 3;
      }

      .cls-1, .cls-2, .cls-3, .cls-4, .cls-5, .cls-6, .cls-7, .cls-8, .cls-9, .cls-10, .cls-11, .cls-12, .cls-13, .cls-14, .cls-15, .cls-16, .cls-17, .cls-18, .cls-19, .cls-20, .cls-21, .cls-22, .cls-23 {
        stroke-linecap: round;
        stroke-miterlimit: 10;
      }

      .cls-1, .cls-2, .cls-3, .cls-4, .cls-5, .cls-6, .cls-7, .cls-8, .cls-9, .cls-10, .cls-11, .cls-12, .cls-13, .cls-14, .cls-15, .cls-16, .cls-17, .cls-18, .cls-19, .cls-21, .cls-22, .cls-23 {
        stroke-width: .75px;
      }

      .cls-1, .cls-2, .cls-3, .cls-4, .cls-5, .cls-6, .cls-7, .cls-8, .cls-9, .cls-11, .cls-12, .cls-13, .cls-14, .cls-15, .cls-16, .cls-17, .cls-18, .cls-19, .cls-20, .cls-21, .cls-22, .cls-23 {
        fill: none;
      }

      .cls-2 {
        opacity: .83;
        stroke: #c2e7f7;
        stroke-dasharray: 3.57 3;
      }

      .cls-3 {
        opacity: .63;
        stroke: #7bcbed;
        stroke-dasharray: 4.24 3;
      }

      .cls-4 {
        opacity: .74;
        stroke: #a3dbf3;
        stroke-dasharray: 3.86 3;
      }

      .cls-5 {
        opacity: .86;
        stroke: #ccebf8;
        stroke-dasharray: 3.48 3;
      }

      .cls-6 {
        opacity: .94;
        stroke: #ebf7fc;
        stroke-dasharray: 3.19 3;
      }

      .cls-7, .cls-10 {
        stroke: #fff;
        stroke-dasharray: 3 3;
      }

      .cls-8 {
        opacity: .43;
        stroke: #33afe3;
        stroke-dasharray: 4.9 3;
      }

      .cls-9 {
        opacity: .89;
        stroke: #d6eff9;
        stroke-dasharray: 3.38 3;
      }

      .cls-10 {
        fill: url(#New_Gradient_Swatch);
      }

      .cls-11 {
        opacity: .69;
        stroke: #8fd3f0;
        stroke-dasharray: 4.05 3;
      }

      .cls-12 {
        opacity: .49;
        stroke: #48b7e6;
        stroke-dasharray: 4.71 3;
      }

      .cls-13 {
        opacity: .4;
        stroke: #29abe2;
        stroke-dasharray: 5 3;
      }

      .cls-14 {
        opacity: .51;
        stroke: #52bbe8;
        stroke-dasharray: 4.62 3;
      }

      .cls-15 {
        opacity: .71;
        stroke: #99d7f1;
        stroke-dasharray: 3.95 3;
      }

      .cls-16 {
        opacity: .6;
        stroke: #70c7ec;
        stroke-dasharray: 4.33 3;
      }

      .cls-17 {
        opacity: .77;
        stroke: #addff4;
        stroke-dasharray: 3.76 3;
      }

      .cls-18 {
        opacity: .97;
        stroke: #f5fbfe;
        stroke-dasharray: 3.1 3;
      }

      .cls-19 {
        opacity: .46;
        stroke: #3db3e5;
        stroke-dasharray: 4.81 3;
      }

      .cls-20 {
        opacity: .57;
        stroke: #66c3ea;
        stroke-dasharray: 4.43 3;
        stroke-width: .75px;
      }

      .cls-21 {
        opacity: .66;
        stroke: #85cfee;
        stroke-dasharray: 4.14 3;
      }

      .cls-22 {
        opacity: .91;
        stroke: #e0f3fb;
        stroke-dasharray: 3.29 3;
      }

      .cls-23 {
        opacity: .8;
        stroke: #b8e3f5;
        stroke-dasharray: 3.67 3;
      }
    </style>
    <radialGradient id="New_Gradient_Swatch" data-name="New Gradient Swatch" cx="893.36" cy="764.21" fx="893.36" fy="764.21" r="892.39" gradientUnits="userSpaceOnUse">
      <stop offset="0" stop-color="#fff"/>
      <stop offset="1" stop-color="#dff2fb"/>
    </radialGradient>
  </defs>
  <g>
    <path class="cls-13" d="M-307.24,348.6c435-123.1,558,122.68,951,202.29,393,79.61,704.4-487.39,1450.2-475.39"/>
    <path class="cls-8" d="M-307.24,358.12c435-123.1,558,122.68,951,202.29,393,79.61,704.4-487.39,1450.2-475.39"/>
    <path class="cls-19" d="M-307.24,367.64c435-123.1,558,122.68,951,202.29,393,79.61,704.4-487.39,1450.2-475.39"/>
    <path class="cls-12" d="M-307.24,377.16c435-123.1,558,122.68,951,202.29,393,79.61,704.4-487.39,1450.2-475.39"/>
    <path class="cls-14" d="M-307.24,386.68c435-123.1,558,122.68,951,202.29,393,79.61,704.4-487.39,1450.2-475.39"/>
    <path class="cls-1" d="M-307.24,396.2c435-123.1,558,122.68,951,202.29,393,79.61,704.4-487.39,1450.2-475.39"/>
    <path class="cls-20" d="M-307.24,405.72c435-123.1,558,122.68,951,202.29,393,79.61,704.4-487.39,1450.2-475.39"/>
    <path class="cls-16" d="M-307.24,415.25c435-123.1,558,122.68,951,202.29,393,79.61,704.4-487.39,1450.2-475.39"/>
    <path class="cls-3" d="M-307.24,424.77c435-123.1,558,122.68,951,202.29,393,79.61,704.4-487.39,1450.2-475.39"/>
    <path class="cls-21" d="M-307.24,434.29c435-123.1,558,122.68,951,202.29,393,79.61,704.4-487.39,1450.2-475.39"/>
    <path class="cls-11" d="M-307.24,443.81c435-123.1,558,122.68,951,202.29,393,79.61,704.4-487.39,1450.2-475.39"/>
    <path class="cls-15" d="M-307.24,453.33c435-123.1,558,122.68,951,202.29,393,79.61,704.4-487.39,1450.2-475.39"/>
    <path class="cls-4" d="M-307.24,462.85c435-123.1,558,122.68,951,202.29,393,79.61,704.4-487.39,1450.2-475.39"/>
    <path class="cls-17" d="M-307.24,472.37c435-123.1,558,122.68,951,202.29,393,79.61,704.4-487.39,1450.2-475.39"/>
    <path class="cls-23" d="M-307.24,481.89c435-123.1,558,122.68,951,202.29,393,79.61,704.4-487.39,1450.2-475.39"/>
    <path class="cls-2" d="M-307.24,491.42c435-123.1,558,122.68,951,202.29,393,79.61,704.4-487.39,1450.2-475.39"/>
    <path class="cls-5" d="M-307.24,500.94c435-123.1,558,122.68,951,202.29,393,79.61,704.4-487.39,1450.2-475.39"/>
    <path class="cls-9" d="M-307.24,510.46c435-123.1,558,122.68,951,202.29,393,79.61,704.4-487.39,1450.2-475.39"/>
    <path class="cls-22" d="M-307.24,519.98c435-123.1,558,122.68,951,202.29,393,79.61,704.4-487.39,1450.2-475.39"/>
    <path class="cls-6" d="M-307.24,529.5c435-123.1,558,122.68,951,202.29,393,79.61,704.4-487.39,1450.2-475.39"/>
    <path class="cls-18" d="M-307.24,539.02c435-123.1,558,122.68,951,202.29,393,79.61,704.4-487.39,1450.2-475.39"/>
    <path class="cls-7" d="M-307.24,548.54c435-123.1,558,122.68,951,202.29,393,79.61,704.4-487.39,1450.2-475.39"/>
  </g>
  <path class="cls-10" d="M-307.24,648.55c435-123.1,558,122.68,951,202.29,393,79.61,704.4-487.39,1450.2-475.39v777.71H-307.24v-504.61Z"/>
</svg>