<?xml version="1.0" encoding="UTF-8"?>
<svg id="BG" xmlns="http://www.w3.org/2000/svg" xmlns:xlink="http://www.w3.org/1999/xlink" viewBox="0 0 1920 1080">
  <defs>
    <style>
      .cls-1 {
        stroke: #f4f4f4;
        stroke-dasharray: 3.29 3;
      }

      .cls-1, .cls-2, .cls-3, .cls-4, .cls-5, .cls-6, .cls-7, .cls-8, .cls-9, .cls-10, .cls-11, .cls-12, .cls-13, .cls-14, .cls-15, .cls-16, .cls-17, .cls-18, .cls-19, .cls-20, .cls-21, .cls-22, .cls-23 {
        stroke-linecap: round;
        stroke-miterlimit: 10;
      }

      .cls-1, .cls-2, .cls-3, .cls-4, .cls-5, .cls-7, .cls-8, .cls-9, .cls-10, .cls-11, .cls-12, .cls-13, .cls-14, .cls-15, .cls-16, .cls-17, .cls-18, .cls-19, .cls-20, .cls-21, .cls-22, .cls-23 {
        stroke-width: .75px;
      }

      .cls-1, .cls-2, .cls-4, .cls-5, .cls-6, .cls-7, .cls-8, .cls-9, .cls-10, .cls-11, .cls-12, .cls-13, .cls-14, .cls-15, .cls-16, .cls-17, .cls-18, .cls-19, .cls-20, .cls-21, .cls-22, .cls-23 {
        fill: none;
      }

      .cls-2 {
        stroke: #f8f8f8;
        stroke-dasharray: 3.19 3;
      }

      .cls-3 {
        fill: url(#linear-gradient);
      }

      .cls-3, .cls-7 {
        stroke: #fff;
        stroke-dasharray: 3 3;
      }

      .cls-4 {
        stroke: #dbdbdb;
        stroke-dasharray: 3.95 3;
      }

      .cls-5 {
        stroke: #e2e2e2;
        stroke-dasharray: 3.76 3;
      }

      .cls-6 {
        stroke: #c9c9c9;
        stroke-dasharray: 4.43 3;
        stroke-width: .75px;
      }

      .cls-8 {
        stroke: #d4d4d4;
        stroke-dasharray: 4.14 3;
      }

      .cls-9 {
        stroke: #b7b7b7;
        stroke-dasharray: 4.9 3;
      }

      .cls-10 {
        stroke: #d7d7d7;
        stroke-dasharray: 4.05 3;
      }

      .cls-11 {
        stroke: #ededed;
        stroke-dasharray: 3.48 3;
      }

      .cls-12 {
        stroke: #dedede;
        stroke-dasharray: 3.86 3;
      }

      .cls-13 {
        stroke: #b3b3b3;
        stroke-dasharray: 5 3;
      }

      .cls-14 {
        stroke: #e6e6e6;
        stroke-dasharray: 3.67 3;
      }

      .cls-15 {
        stroke: #d0d0d0;
        stroke-dasharray: 4.24 3;
      }

      .cls-16 {
        stroke: #bababa;
        stroke-dasharray: 4.81 3;
      }

      .cls-17 {
        stroke: #c5c5c5;
        stroke-dasharray: 4.52 3;
      }

      .cls-18 {
        stroke: #bebebe;
        stroke-dasharray: 4.71 3;
      }

      .cls-19 {
        stroke: #f1f1f1;
        stroke-dasharray: 3.38 3;
      }

      .cls-20 {
        stroke: #fbfbfb;
        stroke-dasharray: 3.1 3;
      }

      .cls-21 {
        stroke: #c1c1c1;
        stroke-dasharray: 4.62 3;
      }

      .cls-22 {
        stroke: #ccc;
        stroke-dasharray: 4.33 3;
      }

      .cls-23 {
        stroke: #e9e9e9;
        stroke-dasharray: 3.57 3;
      }
    </style>
    <linearGradient id="linear-gradient" x1="-307.24" y1="764.21" x2="2093.96" y2="764.21" gradientUnits="userSpaceOnUse">
      <stop offset=".34" stop-color="#fff"/>
      <stop offset="1" stop-color="#f2f2f2"/>
    </linearGradient>
  </defs>
  <g>
    <path class="cls-13" d="M-307.24,348.6c435-123.1,558,122.68,951,202.29,393,79.61,704.4-487.39,1450.2-475.39"/>
    <path class="cls-9" d="M-307.24,358.12c435-123.1,558,122.68,951,202.29,393,79.61,704.4-487.39,1450.2-475.39"/>
    <path class="cls-16" d="M-307.24,367.64c435-123.1,558,122.68,951,202.29,393,79.61,704.4-487.39,1450.2-475.39"/>
    <path class="cls-18" d="M-307.24,377.16c435-123.1,558,122.68,951,202.29,393,79.61,704.4-487.39,1450.2-475.39"/>
    <path class="cls-21" d="M-307.24,386.68c435-123.1,558,122.68,951,202.29,393,79.61,704.4-487.39,1450.2-475.39"/>
    <path class="cls-17" d="M-307.24,396.2c435-123.1,558,122.68,951,202.29,393,79.61,704.4-487.39,1450.2-475.39"/>
    <path class="cls-6" d="M-307.24,405.72c435-123.1,558,122.68,951,202.29,393,79.61,704.4-487.39,1450.2-475.39"/>
    <path class="cls-22" d="M-307.24,415.25c435-123.1,558,122.68,951,202.29,393,79.61,704.4-487.39,1450.2-475.39"/>
    <path class="cls-15" d="M-307.24,424.77c435-123.1,558,122.68,951,202.29,393,79.61,704.4-487.39,1450.2-475.39"/>
    <path class="cls-8" d="M-307.24,434.29c435-123.1,558,122.68,951,202.29,393,79.61,704.4-487.39,1450.2-475.39"/>
    <path class="cls-10" d="M-307.24,443.81c435-123.1,558,122.68,951,202.29,393,79.61,704.4-487.39,1450.2-475.39"/>
    <path class="cls-4" d="M-307.24,453.33c435-123.1,558,122.68,951,202.29,393,79.61,704.4-487.39,1450.2-475.39"/>
    <path class="cls-12" d="M-307.24,462.85c435-123.1,558,122.68,951,202.29,393,79.61,704.4-487.39,1450.2-475.39"/>
    <path class="cls-5" d="M-307.24,472.37c435-123.1,558,122.68,951,202.29,393,79.61,704.4-487.39,1450.2-475.39"/>
    <path class="cls-14" d="M-307.24,481.89c435-123.1,558,122.68,951,202.29s704.4-487.39,1450.2-475.39"/>
    <path class="cls-23" d="M-307.24,491.42c435-123.1,558,122.68,951,202.29,393,79.61,704.4-487.39,1450.2-475.39"/>
    <path class="cls-11" d="M-307.24,500.94c435-123.1,558,122.68,951,202.29,393,79.61,704.4-487.39,1450.2-475.39"/>
    <path class="cls-19" d="M-307.24,510.46c435-123.1,558,122.68,951,202.29,393,79.61,704.4-487.39,1450.2-475.39"/>
    <path class="cls-1" d="M-307.24,519.98c435-123.1,558,122.68,951,202.29,393,79.61,704.4-487.39,1450.2-475.39"/>
    <path class="cls-2" d="M-307.24,529.5c435-123.1,558,122.68,951,202.29,393,79.61,704.4-487.39,1450.2-475.39"/>
    <path class="cls-20" d="M-307.24,539.02c435-123.1,558,122.68,951,202.29,393,79.61,704.4-487.39,1450.2-475.39"/>
    <path class="cls-7" d="M-307.24,548.54c435-123.1,558,122.68,951,202.29,393,79.61,704.4-487.39,1450.2-475.39"/>
  </g>
  <path class="cls-3" d="M-307.24,648.55c435-123.1,558,122.68,951,202.29,393,79.61,704.4-487.39,1450.2-475.39v777.71H-307.24v-504.61Z"/>
</svg>