<?xml version="1.0" encoding="UTF-8"?>
<svg id="Layer_2" data-name="Layer 2" xmlns="http://www.w3.org/2000/svg" viewBox="0 0 167.32 167.32">
  <defs>
    <style>
      .cls-1 {
        fill: #fff;
        opacity: .75;
      }

      .cls-2 {
        fill: #1ca9d4;
      }

      .cls-3 {
        fill: none;
        stroke: #e6e6e6;
        stroke-linecap: round;
        stroke-miterlimit: 10;
        stroke-width: 5px;
      }

      .cls-4 {
        fill: #999;
      }
    </style>
  </defs>
  <g id="Layer_2-2" data-name="Layer 2">
    <g>
      <circle class="cls-1" cx="83.66" cy="83.66" r="81.16"/>
      <circle class="cls-3" cx="83.66" cy="83.66" r="81.16"/>
    </g>
  </g>
  <g id="Layer_1-2" data-name="Layer 1">
    <g>
      <g>
        <path class="cls-4" d="M80.01,138.46c-.06,0-.13,0-.19-.01-15.02-2.18-24.49-16.98-26.97-29.86,0,0-.42,0-.42,0-.1,0-.21,0-.31-.02-5.47-1.13-7.33-12.11-7.36-15.77-.02-3.2,1.2-6.95,4.68-7.27-.09-.4-.2-.79-.3-1.18-.12-.44-.24-.87-.33-1.32-1.25-5.79-1.13-11.1.37-16.24,2.44-8.4,8.75-15.78,16.9-19.8-.27-3.04.2-5.64,1.45-7.93,2.35-4.33,7.27-7.37,12.84-7.94h.01c.18,0,.31.06.4.15.09.1.15.23.14.37v1.77c0,.24-.18.44-.42.46-4.25.47-9.79,2.95-11.41,8.44-.33,1.12-.38,1.44-.38,1.53v1.96c3.42-1.23,6.48-1.98,9.32-2.3l.48-.05c.64-.08,1.36-.16,1.87-.16.26,0,.65.12.65.45v1.88c0,.25-.2.46-.45.47-15.52.53-28.03,11.56-29.75,26.23-.44,3.81.03,8.85,1.14,12.26.02-.17.05-.35.07-.5.06-.43.11-.84.15-.99,1.76-8.07,5.8-13.4,12.71-16.79,1.57-.77,3.15-1.41,4.83-2.1,3-1.22,6.1-2.49,9.25-4.55.22-.14.47-.22.73-.22.37,0,.72.16.98.43.25.27.38.63.36,1.01v.18c-.01.41-.2.78-.51,1.03-2.76,2.15-6.06,3.38-9.25,4.56-2.23.82-4.53,1.68-6.61,2.84-6.03,3.36-9.43,9.11-10.38,17.58-.02.21-.03.49-.04.8-.03,1.05-.06,2.24-.6,2.65-.3.23-.59.34-.86.34-.7,0-1.12-.7-1.45-1.26-.12-.2-.23-.39-.35-.53-.4-.48-.89-.75-1.37-.75-.52,0-1,.31-1.36.88-1.83,2.94.12,11.13,1.83,14.28.42.77,1.24,2.02,2.25,2.32.03-.34.15-.64.36-.88.24-.28.59-.44.95-.44.46,0,.9.26,1.21.72l.03.05v.06c1.89,13.09,10.62,28.22,25.33,30.52.65.1,1.12.65,1.12,1.31,0,.75-.59,1.35-1.32,1.35Z"/>
        <path class="cls-4" d="M60.06,89.6c-.36,0-.68-.17-.84-.45-.18-.31-.16-.7.06-1.07.15-.26.93-.99,1.1-1.14,1.73-1.48,4.43-2.42,7.05-2.46h.12c1.21,0,2.19.25,3.13.5.64.17,1.25.33,1.92.41.04,0,.09,0,.13,0,.15,0,.31-.02.48-.04.19-.02.38-.05.55-.05s.69,0,.98.51c.17.31.22.66.12.99-.1.33-.32.6-.63.77-.27.14-.61.21-1.03.21-.79,0-1.73-.25-2.64-.49-.65-.17-1.26-.33-1.72-.37-.51-.04-.98-.07-1.42-.07-2.71,0-4.18.89-6.55,2.47-.27.18-.55.27-.82.27Z"/>
        <path class="cls-4" d="M68.01,100.66c-1.12,0-2.19-.19-3.17-.57-.85-.33-3.17-1.72-3.61-2.57-.2-.39-.21-.87-.03-1.26.16-.34.45-.57.81-.64.06-.01.13-.02.2-.02.53,0,.97.42,1.36.8.14.13.27.26.39.35,1.25.91,2.67,1.39,4.11,1.39,1.3,0,2.62-.4,3.81-1.15.14-.09.29-.22.45-.35.4-.34.85-.72,1.35-.72.32,0,.61.16.86.46.45.56.39,1.24-.18,1.8-1.56,1.55-3.93,2.47-6.34,2.47Z"/>
        <path class="cls-2" d="M62.13,79.95c-.17,0-.29-.03-.39-.08-.22-.13-.34-.49-.35-.66-.03-.7.72-.88,1.17-.99l.18-.04c1.68-.47,3.22-.69,4.85-.69,1.38,0,2.69.15,4.08.32,1.04.12,2.12.25,3.34.33.05,0,.12,0,.22,0,0,0,1.17-.02,1.48-.02,1.31,0,1.51.09,1.62.27.16.26.18.55.05.82-.14.3-.46.51-.82.55-.38.04-.76.06-1.14.06-1.2,0-2.41-.19-3.57-.37-.89-.14-1.82-.28-2.7-.33-.44-.02-.88-.04-1.32-.04-1.45,0-2.96.13-4.38.38-.14.02-.37.09-.63.16-.56.15-1.26.34-1.68.34Z"/>
        <path class="cls-4" d="M72.16,122.57c-.59,0-.95-.34-.98-.94-.07-1.18,1.87-1.71,2.8-1.96,1.02-.28,2.03-.41,3.06-.41,1.31,0,2.6.23,3.73.67.34.13.56.46.56.83v.48c0,.49-.4.89-.88.89-.07,0-.15,0-.22-.03-.21-.06-.42-.12-.63-.18-.58-.17-1.12-.33-1.69-.38-.3-.03-.59-.04-.88-.04-.88,0-1.75.13-2.64.38-.13.04-.32.11-.52.2-.52.21-1.18.48-1.71.48Z"/>
        <path class="cls-2" d="M67.59,121.51c-.42,0-.75-.3-.8-.71-.02-.21.06-.9.1-1.29.45-3.57,2.53-7.1,5.42-9.2.52-.38,1.21-.85,1.5-.9h.14c.32-.01.6.17.74.45.13.27.08.59-.12.83l-.03.04-.04.03c-3.56,1.99-5.92,5.86-6.14,10.12-.13.42-.42.63-.77.63Z"/>
        <path class="cls-2" d="M76.22,75.65c-1.04,0-2.14-.15-3.21-.29-.84-.11-1.63-.22-2.34-.25-.23-.01-.46-.01-.7-.01-.73,0-1.53.04-2.31.12-.23.02-.6.1-.99.19-.57.12-1.15.24-1.47.24h-.12c-.29-.04-.51-.25-.61-.56-.1-.32-.02-.66.19-.84.36-.31,3.17-.61,3.2-.61.48-.04.96-.05,1.44-.05,1.29,0,2.57.11,3.81.22,1.23.11,2.51.22,3.79.22h.22c.06,0,.14-.02.22-.04.1-.02.21-.05.33-.05.47.06.75.37.76.76.01.4-.24.73-.65.82-.45.1-.96.14-1.54.14Z"/>
        <path class="cls-2" d="M57.13,102.9c-.36,0-.66-.19-.77-.5-.11-.29-.02-.63.23-.85.13-.12.4-.23.87-.41.38-.15.82-.32,1.04-.47.12-.08.4-.33.62-.53.43-.39.54-.49.66-.52.1-.03.2-.05.29-.05.27,0,.49.13.61.35.15.27.11.63-.09.94-.48.76-2.51,1.97-3.39,2.02h-.07Z"/>
        <path class="cls-2" d="M59.16,96.97c-.9,0-2.35-.9-2.37-.91-.34-.21-1.44-.96-1.35-1.6.02-.17.14-.4.54-.52.06-.02.13-.03.2-.03.43,0,.88.36,1.33.71.23.18.44.35.6.43.12.06.31.12.51.18.62.2,1.27.4,1.31.9.02.25-.04.46-.17.6-.14.15-.34.23-.6.23Z"/>
        <path class="cls-2" d="M57.38,99.34c-.95,0-2.1-.15-2.2-.84-.04-.27.01-.48.15-.64.14-.16.36-.24.65-.24.27,0,.58.07.85.13.18.04.37.08.48.08.15,0,.44-.06.71-.13.37-.08.8-.18,1.13-.18.27,0,.47.06.6.19.29.29.26.56.21.7-.25.71-1.98.91-2,.91-.13.01-.33.02-.58.02Z"/>
        <path class="cls-4" d="M80.34,113.75c-.1,0-.19-.02-.28-.05-.58-.2-1.95-.78-2.2-1.19-.13-.21-.17-.53-.1-.79.05-.2.16-.36.31-.45.12-.07.26-.11.42-.11.39,0,.81.22,1.26.46.29.15.59.31.84.38.38.1.64.46.64.86,0,.24-.09.46-.26.63-.17.17-.39.26-.63.26Z"/>
      </g>
      <g>
        <path class="cls-2" d="M86.36,138.36c-.35,0-.69-.14-.94-.38-.26-.25-.4-.59-.4-.95,0-.66.5-1.23,1.15-1.32,3.38-.47,6.95-2.07,10.32-4.65,6.08-4.63,10.86-12.04,13.12-20.31.21-.76.36-1.62.51-2.46.18-.98.36-1.99.63-2.84.2-.63.68-1.03,1.26-1.03.38,0,.73.17.98.46.19.23.29.51.31.82.73-.29,1.32-1.08,1.71-1.68,1.98-3.05,3.89-11.41,2.35-14.59-.36-.75-.91-1.17-1.51-1.17-.48,0-.96.27-1.37.79-.14.17-.25.38-.36.58-.28.53-.61,1.12-1.3,1.12-.23,0-.48-.07-.75-.21-.72-.36-.76-1.64-.8-2.66-.01-.29-.02-.56-.04-.75-1.15-8.71-4.78-14.43-11.42-18.01-1.81-.98-3.79-1.74-5.71-2.48-3.09-1.19-6.29-2.43-8.9-4.59-.31-.25-.49-.63-.49-1.03,0-.76.6-1.36,1.34-1.36.3,0,.59.1.83.29,2.5,1.97,5.56,3.16,8.53,4.31,2.1.82,4.28,1.66,6.26,2.78,6.27,3.55,10.44,9.63,11.83,17.22l.44-1.52c2.04-8.57.41-17.1-4.59-23.99-5.29-7.29-13.77-11.92-23.27-12.7h-.55c-.18,0-.36,0-.49-.03-.39-.08-.43-.31-.43-.41v-1.89c0-.2.13-.43.5-.43.16,0,.32.04.46.07.05.01.1.02.12.02,2.35.08,4.79.45,7.27,1.11.62.17,1.31.43,1.97.69.76.29,1.48.57,2.08.7,0-.24,0-.49.02-.73.02-.39.03-.75,0-1.09-.06-.68-.42-1.91-.72-2.66-1.61-4.13-6.23-7.23-11.24-7.54-.26-.02-.46-.23-.46-.49v-1.78c0-.27.22-.5.49-.5,6.75.48,14.04,5.45,14.59,12.93.05.64.02,1.29-.01,1.92-.02.38-.04.76-.04,1.14,7.44,3.7,13.29,10.23,16.04,17.92,2.26,6.31,2.37,13.42.32,20.59,1.89.03,3.45,1.39,4.17,3.66,1.24,3.89-.33,11.67-2.46,15.51-.62,1.13-2.33,3.71-4.91,3.82-1.35,7.01-4.56,13.82-9.07,19.21-2.87,3.44-8.93,9.38-17.18,10.55-.06,0-.13.01-.19.01Z"/>
        <path class="cls-2" d="M105.86,89.61c-.54,0-1.11-.4-1.61-.75-.18-.13-.34-.24-.48-.31-1.81-.97-3.59-1.45-5.43-1.45-1.31,0-2.67.25-4.05.74-.16.06-.34.15-.54.25-.5.24-1.06.52-1.58.52-.34,0-.62-.12-.83-.35-.4-.43-.4-.82-.34-1.08.22-.88,1.6-1.46,2.77-1.87,1.52-.53,3.05-.8,4.57-.8,2.24,0,4.36.6,6.16,1.72.8.5,2.16,1.48,2.27,2.36.03.27-.05.52-.24.72-.18.19-.41.29-.68.29Z"/>
        <path class="cls-2" d="M97.81,100.68c-2.06,0-4.07-.73-5.83-2.11-.46-.36-.94-.74-1-1.28-.03-.3.07-.6.31-.9.23-.29.52-.43.85-.43.57,0,1.15.45,1.66.84.22.17.43.34.62.44,1.09.6,2.23.91,3.37.91h0c1.12,0,2.22-.29,3.27-.87.23-.13.73-.52,1.16-.87.74-.59.94-.74,1.09-.77.1-.02.19-.03.29-.03.44,0,.84.22,1.07.6.23.38.24.82.03,1.23-.11.21-.54.61-.78.83-1.78,1.59-3.89,2.43-6.11,2.43Z"/>
        <path class="cls-2" d="M85.72,122.68c-.22,0-.8,0-.8-.43v-.99c0-.51.38-.93.89-.99,2.3-.27,4.03-.82,5.44-1.74.16-.1.33-.25.52-.41.49-.42,1.05-.89,1.63-.89.27,0,.51.1.72.29.26.24.4.52.39.81,0,.59-.56,1.07-.96,1.43-1.79,1.58-4.6,2.54-6.59,2.81-.25.03-.81.11-1.25.11Z"/>
        <path class="cls-2" d="M85.92,113.57c-.31,0-.61-.14-.8-.39-.18-.23-.25-.53-.18-.82.03-.14.1-.26.19-.33.11-.09,1.77-.88,1.91-.91.07-.01.13-.02.2-.02.26,0,.51.11.67.31.17.2.24.48.19.76-.12.69-1.34,1.17-1.86,1.34-.11.04-.21.05-.32.05Z"/>
      </g>
    </g>
  </g>
</svg>