<?xml version="1.0" encoding="UTF-8"?>
<svg id="Layer_2" data-name="Layer 2" xmlns="http://www.w3.org/2000/svg" viewBox="0 0 167.36 167.36">
  <defs>
    <style>
      .cls-1 {
        fill: #fff;
        opacity: .75;
      }

      .cls-2 {
        fill: #1ca9d4;
      }

      .cls-3 {
        fill: none;
        stroke: #e6e6e6;
        stroke-linecap: round;
        stroke-miterlimit: 10;
        stroke-width: 5px;
      }

      .cls-4 {
        fill: #999;
      }
    </style>
  </defs>
  <g id="Layer_2-2" data-name="Layer 2">
    <g>
      <circle class="cls-1" cx="83.68" cy="83.68" r="81.16"/>
      <circle class="cls-3" cx="83.68" cy="83.68" r="81.16"/>
    </g>
  </g>
  <g id="Layer_1-2" data-name="Layer 1">
    <g id="CKbdn8">
      <g>
        <g>
          <path class="cls-2" d="M105.25,72.84c.44.4.31,1.07-.07,1.46-.22.22-3.51,2.4-3.79,2.51-.64.25-1.19.08-1.54-.5s-1.54-3.24-1.69-3.83c-.34-1.3,1.16-1.71,1.74-.64l.75,1.63c1.81-5.88,6.03-10.62,7.71-16.56.33-1.16.48-2.36.78-3.53.27-.53,1.25-.56,1.56-.08.34.52-.05,2.05-.18,2.68-1.34,6.57-5.81,11.57-7.99,17.77.85-.21,1.86-1.7,2.73-.91Z"/>
          <path class="cls-2" d="M70.13,73.47c.21-.67.58-2.34,1.48-2.29.66.04.91.52.85,1.13-.04.39-1.52,3.82-1.79,4.18-.5.68-1.05.5-1.68.16-.45-.24-3.68-2.41-3.78-2.63-.23-.54.02-1.37.67-1.43s1.55,1.06,2.25,1.16c-2.22-6.05-6.49-10.92-8.01-17.3-.16-.65-.53-2.33-.36-2.91.18-.61,1.34-.76,1.66-.16.46,2.5,1.15,4.9,2.17,7.23,1.42,3.25,3.54,6.14,5.01,9.36.46,1,.81,2.34,1.28,3.25.05.1.11.24.24.25Z"/>
        </g>
        <path class="cls-2" d="M98.21,142.01c.47-.3,1.03-1.16,1.6-1.22.69-.08,1.23.43,1.01,1.12-.09.27-1.47,1.6-1.77,1.88s-1.35,1.27-1.67,1.32c-.62.09-.82-.16-1.21-.55-.3-.3-2.26-2.65-2.33-2.87-.12-.39-.1-.82.24-1.1,1.02-.82,1.63.89,2.36,1.31.28-5,1.23-10.08,2.98-14.76.16-.44.69-1.92.96-2.14.76-.61,1.61.11,1.47,1.03-.11.73-.96,2.42-1.24,3.29-1.33,4.1-1.95,8.4-2.4,12.69Z"/>
        <path class="cls-2" d="M73.89,141.9c.54-.31.78-.98,1.27-1.33.89-.62,1.77.34,1.21,1.32-.31.54-1.62,2.05-2.09,2.55s-.71.88-1.47.58c-.32-.13-2.8-2.42-3.07-2.79-.67-.89.13-1.77,1.05-1.38.23.1.84.89,1.16,1.05.05-1.41-.2-2.94-.41-4.35-.43-2.86-1.08-5.7-1.94-8.45-.27-.85-1.02-2.33-1.13-3.07-.13-.88.56-1.59,1.32-1.09.46.3.9,1.75,1.11,2.31,1.74,4.69,2.61,9.67,2.98,14.65Z"/>
        <g>
          <path class="cls-4" d="M108.71,121.67c-.28-.05-.17.02-.23.16-.58,1.31-1.16,3.61-1.48,5.04-1.42,6.29-1.33,12.56,1.27,18.53.05.99-1.33,1.43-1.88.74-.37-.46-1.04-2.59-1.24-3.26-2.35-7.73-.92-15.87,1.91-23.25-2.1,1.35-4.48,2.43-7.01,2.6-1.01.07-3.3.33-3.02-1.25.21-1.21,1.94-.79,2.8-.86,8.25-.67,12.16-8.87,9.57-16.31-.23-.64-.99-1.52-.28-2.16,1.29-1.14,2.27,1.52,2.57,2.41,1.49,4.32.54,8.78-1.74,12.57,1.71,9.67,3.07,19.41,4.84,29.05-.23.93-1.4,1.13-1.91.3-.2-.33-.26-.91-.36-1.3-.59-2.49-1.01-5.21-1.44-7.74-.86-5.08-1.55-10.19-2.35-15.28Z"/>
          <path class="cls-2" d="M86.05,136.04c.47-.31,1.34-1.68,1.83-1.77.99-.19,1.51.84.94,1.6-1.07.83-1.93,2.32-2.98,3.1-.52.39-.8.4-1.33,0-.48-.35-2.65-2.62-2.98-3.1-.53-.76-.15-1.73.82-1.6.73.09,1.19,1.47,1.94,1.66v-36.32c0-.69,1.77-.78,1.77,0v36.43Z"/>
          <path class="cls-4" d="M61.25,101.69c.61.67-.17,1.62-.41,2.34-2.34,6.94,1.13,14.76,8.71,15.95.9.14,2.49,0,3.12.19.98.3.89,1.88-.18,2.05-2.3.36-5.37-.48-7.42-1.52-.27-.14-1.53-1.06-1.69-.9.45,1.67,1.08,3.28,1.52,4.95,1.6,6.07,2.04,12.19.2,18.27-.22.72-.71,2.34-1.07,2.91-.57.91-2.01.64-1.98-.53.01-.57.94-2.6,1.17-3.38,1.71-5.94,1.05-12.04-.69-17.88l-.91-2.57c-.73,4.38-1.3,8.79-2.02,13.18-.54,3.26-1.01,6.75-1.77,9.95-.14.59-.18,1.35-.75,1.68-.54.31-1.38.04-1.51-.57-.17-.74.65-3.78.83-4.77,1.43-8.16,2.53-16.38,3.98-24.53-2.62-3.71-3.46-10.87-.73-14.66.36-.49,1.2-.59,1.61-.15ZM63.33,119.57v.11c.07-.04.07-.07,0-.11Z"/>
        </g>
        <g>
          <path class="cls-4" d="M104.07,47.04c4.02.92,2.83,6.17,1.74,8.99-.75,1.93-2.14,4.45-4.5,4.4-1.02,4.24-3.32,8.16-6.36,11.27-.27,2.96-.38,6.25,1.6,8.67,3.19,3.89,12.52,4.25,17.32,6.34,5.88,2.56,8.44,8.16,8.77,14.34.38,7.11-.17,14.61,0,21.78.17,7.52,1.07,15.04,2.32,22.46.09,1.24-1.6,1.64-2.04.48-.39-1.03-.62-3.5-.81-4.72-.89-5.75-1.42-11.64-1.57-17.45-.18-7.16.35-14.56,0-21.67-.19-3.86-1.33-8.5-4.31-11.17-6.14-5.49-19.49-2.83-22.78-11.49-.67-1.78-.8-3.7-.77-5.58-2.44,1.75-5.05,2.93-8.13,2.77-2.53-.13-4.84-1.32-6.85-2.77.12,1.86-.07,3.8-.75,5.56-3.5,9.15-17.71,5.68-23.58,12.35-2.54,2.89-3.42,7.25-3.59,11-.32,7.06.2,14.36,0,21.45-.15,5.65-.69,11.42-1.57,17.01-.21,1.35-.44,3.36-.81,4.61-.39,1.33-2.25.88-2.05-.5,1.29-7.4,2.15-14.93,2.33-22.44.17-6.9-.33-14.04,0-20.9.26-5.43,2.11-11.21,6.97-14.14s11-2.74,16.06-5.05c4.36-1.99,5.15-5.48,4.83-9.99-.1-1.44-.59-1.32-1.39-2.26-2.39-2.83-4.2-6.34-5.03-9.95-2.32.08-3.57-2.13-4.36-3.99-1.23-2.92-2.57-8.24,1.49-9.47-.5-3.29-.84-6.57-.28-9.88.9-5.35,4.07-10.04,8.63-12.93.05-.99-.14-2.03-.06-3.05.3-4.05,3.43-7.5,7.22-8.7,7.02-2.23,14.56,2.78,14.12,10.36-.02.34-.31,1.16-.17,1.38,4.63,2.87,7.91,7.71,8.76,13.13.51,3.28.12,6.51-.41,9.75ZM93.68,22.94c.59-4.64-3.3-8.5-7.8-8.84-4.09-.31-8.25,2.42-9.07,6.52-.07.35-.34,2.28.02,2.34.2.03,3.18-1.11,3.82-1.26,3.27-.76,6.69-.69,9.93.2,1.05.29,2.04.78,3.1,1.05ZM102.19,45.16c1.34-7.1-.75-14.27-6.71-18.55-9.47-6.82-23.46-2.44-26.85,8.83-.82,2.74-1,6.63-.49,9.45.02.13.06.26.21.28.82-2.84,2.95-5.33,5.43-6.9,4.46-2.82,9.76-2.29,14.13-5.66.55-.42,1.94-1.96,2.42-2.01,1.1-.13,1.66,1.88,2.19,2.73,2.43,3.89,6.75,6.11,8.91,10.22l.75,1.62ZM104.25,49.4c-1.1-1.08-2.31.89-3.17-.09-.33-.38-.26-1.14-.38-1.61-1.54-6.27-6.45-8.03-9.72-12.94-.13-.2-.71-1.31-.78-1.31-2.02,1.85-4.51,3.14-7.13,3.92-1.88.56-3.85.82-5.7,1.49-3.91,1.43-6.68,4.38-7.54,8.49-.14.69.01,1.76-.65,2.11-.9.47-1.24-.36-2-.4-2.33-.13-1.31,3.95-.91,5.23.29.94,1.33,3.64,2.32,3.88.56.13,1.3-.81,2.04.16.36.47.89,2.95,1.2,3.78,2.29,6.19,9.12,14.46,16.55,11.52,6.03-2.38,9.9-9.31,11.45-15.31.73-1.03,1.57.11,2.25-.29.92-.53,1.87-3,2.17-4.03.32-1.11.93-3.71.02-4.61Z"/>
          <path class="cls-4" d="M96.74,52.72c1,1.1-.89,2.21-1.74,2.56-1.63.69-3.5.7-5.09-.1-.71-.36-1.61-.94-1.09-1.87.57-1.02,1.8.12,2.53.32,1.06.29,2.07.2,3.06-.26.68-.31,1.56-1.48,2.32-.65Z"/>
          <path class="cls-4" d="M73.96,52.48c.82-.18.91.31,1.43.62,1.13.66,2.39.89,3.66.49.78-.24,1.54-1.27,2.28-.47,1.36,1.47-2.14,2.59-3.2,2.65-1.3.07-3.84-.59-4.65-1.66-.41-.55-.22-1.48.46-1.63Z"/>
        </g>
      </g>
    </g>
  </g>
</svg>