<?xml version="1.0" encoding="UTF-8"?>
<svg id="Layer_2" data-name="Layer 2" xmlns="http://www.w3.org/2000/svg" viewBox="0 0 167.36 167.36">
  <defs>
    <style>
      .cls-1 {
        stroke: #999;
        stroke-width: 3.12px;
      }

      .cls-1, .cls-2 {
        fill: none;
        stroke-linecap: round;
        stroke-miterlimit: 10;
      }

      .cls-3 {
        fill: #fff;
        opacity: .75;
      }

      .cls-4 {
        fill: #1ca9d4;
      }

      .cls-2 {
        stroke: #e6e6e6;
        stroke-width: 5px;
      }

      .cls-5 {
        fill: #999;
      }
    </style>
  </defs>
  <g id="Layer_2-2" data-name="Layer 2">
    <g>
      <circle class="cls-3" cx="83.68" cy="83.68" r="81.16"/>
      <circle class="cls-2" cx="83.68" cy="83.68" r="81.16"/>
    </g>
  </g>
  <g id="Layer_1-2" data-name="Layer 1">
    <g>
      <path class="cls-5" d="M52.69,94.51c.18.21.96.33,1.22.27s.28-1.59.99-1.4c.8.21.33,1.55.37,1.59.07.07,1.81.41,1.92.41.15,0,.12-1.81.96-1.6.67.17.47,1.77.69,1.81,1.52.27,1.06-1.52,1.98-1.44.8.07.43,1.72.54,1.83.04.04,1.08.04,1.19-.03.23-.15-.09-1.57.7-1.39.74.17.57,1.55.88,1.63,1.33.33.57-1.54,1.56-1.43.67.07.61,1.56.84,1.63.74.24.42-1.17.82-1.43,1.31-.87,1.03,1.56,1.1,1.63.05.05,1.36.05,1.5.01.1-.03.73-2.6,1.41-1.22.32.66-.17,1.72,1.44,1.4.52-.1.73-1.43,1.37-1.2.37.13.28,1.29.38,1.37.35.32,3.02-.59,3.22.94-.46,1.58-2.35.61-3.33.9-.26.08-.06,1.71-.72,1.81-1.11.16-.69-1.74-.95-1.81-.14-.04-1.19-.04-1.36,0-.2.05-.58,2.68-1.56,1.81-.5-.44.19-1.93-1.32-2.01-.95-.05-.31,1.58-.77,1.9-.85.59-1.28-1.27-1.14-2.1-.7-.12-.38,2-1.2,2s-.22-2.18-1.54-2.21c-.53-.01-.29,1.82-.93,1.98-.93.24-.73-2.15-.9-2.18-1.47-.26-1.25,1.82-1.86,1.77-.81-.06-.51-2.35-1.55-2.18-.14.02-1.07,2.55-1.54-.19-.27-.3-.94,2.08-1.71,1.28-.3-.31.08-1.91-.62-1.69-.16.05-.34,1.1-1.19.8-.46-.16-.18-1.01-.65-1.18-.96-.34-1.11,1.52-1.32,1.57-1.31.34-.85-1.83-1.11-2.02-.62-.44-3.31-.15-2.89-1.66.37-1.33,3.06.26,3.78-.19.16-.1.04-1.26.72-1.18.59.06.4,1.16.58,1.37Z"/>
      <path class="cls-5" d="M122.27,95.34c-.42.67-12.97,2.69-14.65,2.86-2.84.3-7.83.78-10.54.42-.86-.12-1.24-.86-.6-1.43.58-.52,5.38-.33,6.48-.4,3.49-.24,7.02-.72,10.47-1.28,2.3-.37,5.9-1.48,7.97-1.56.9-.03,1.26.79.87,1.4Z"/>
      <path class="cls-4" d="M89.09,96.79c-.37-.74-1.87-1.6-1.99-2.37s.63-1.48,1.44-1.24c.27.08,3.84,3.62,4,3.9.28.48.33.98,0,1.44-.93.49-3.14,3.7-3.8,3.9-.8.24-1.79-.1-1.68-1.07.08-.65,1.73-1.66,2.03-2.34h-7.8c-.68,0-.68-2.23,0-2.23h7.8Z"/>
      <path class="cls-5" d="M81.26,60.13c-.69-.8-.31-2.04.66-2.17,1.12-.15,1.87,1.78,4.25,1.03.96-.3,1.6-1.47,2.63-.83,2.07,1.28-1.54,3.26-2.86,3.44s-3.76-.4-4.68-1.46Z"/>
      <path class="cls-4" d="M51.15,66.75c2.46-.13,6.45.99,9.11,1.32,19.72,2.44,39.29,2.03,58.88-1.37,6.15.45,8.44,11.63,3.67,14.77-2.95,1.94-13.33,3.03-17.22,3.44-15.45,1.61-31.98,1.34-47.36-.84-5.36-.76-13.9-.96-13.5-8.18.22-3.94,1.73-8.88,6.42-9.13ZM120.2,69.38c-.54-.22-1.26-.31-1.84-.28-2.79.14-6.6,1.22-9.56,1.59-19.05,2.42-38.6,1.76-57.48-1.6-3.02.35-3.88,3.16-4.13,5.8-.16,1.69-.2,3.29,1.19,4.44,1.77,1.46,8.9,2.17,11.47,2.5,18.15,2.32,40.7,2.59,58.63-1.25,1.72-.37,3.64-.65,4.31-2.57.64-1.82-.24-6.53-1.61-7.91-.06-.06-.94-.7-1-.72Z"/>
      <path class="cls-4" d="M74.87,75.94c-.15.15-.46.2-.67.23-.75.11-4.74-.19-5.41-.43-1.02-.38-.63-1.83.55-1.99.6-.08,4.51.24,5.06.43.79.28,1.04,1.19.47,1.76Z"/>
      <path class="cls-4" d="M68.28,80.19c-.46-.46-.26-1.68.46-1.77,1.14.07,5.19-.1,5.88.6s.22,1.57-.64,1.78c-.97-.3-5.17-.07-5.7-.6Z"/>
      <path class="cls-4" d="M101.8,80.19c-.2.2-1.86.41-2.28.45-.72.07-2.61.23-3.23.2-1.01-.06-1.27-1.37-.73-1.92.5-.5,4.8-.46,5.77-.5.83.06.91,1.32.46,1.77Z"/>
      <path class="cls-4" d="M78.1,74.41c.5-.14,4.42-.13,4.98,0,.98.23,1.25,1.43.46,2-.43.31-2.58.23-3.26.2-.49-.03-2.03-.15-2.38-.25-.88-.25-.65-1.7.21-1.94Z"/>
      <path class="cls-4" d="M87.01,74.41c.46-.13,4.48-.14,5.02-.04,1.04.2,1.11,1.69.17,1.98-.85.26-4.16.4-5.02.24-1.17-.22-1.22-1.88-.17-2.18Z"/>
      <path class="cls-4" d="M100.59,73.81c1.4-.03,1.76,1.52.5,2.14-1.63-.08-3.42.47-5.03.25-1.28-.17-1.15-1.77-.36-1.99,1.61-.1,3.27-.37,4.88-.4Z"/>
      <path class="cls-4" d="M111.11,79.18c-.17.17-1.18.38-1.49.43-.94.15-3.15.44-4.02.44-1.39,0-1.55-1.53-.2-2.03.49-.18,4.08-.65,4.65-.63.98.04,1.83,1.05,1.07,1.79Z"/>
      <path class="cls-4" d="M65.75,73.61c.37.36.38,1.42-.15,1.67-.62.3-5.5-.22-5.98-.7-.63-.62-.12-1.68.66-1.8.4-.06,2.97.3,3.58.39.41.06,1.69.22,1.9.43Z"/>
      <path class="cls-4" d="M108.49,73.01c.73-.04,1.59-.31,2.08.44,1.36,2.07-4.65,1.79-5.58,2.14-3.03-2.21,1.92-2.48,3.5-2.57Z"/>
      <path class="cls-4" d="M50.55,76.03c.62-.19,4.64.38,5.33.66,1.25.5.85,2.06-.3,2.1-.51.02-4.22-.68-4.78-.87-.97-.33-1.14-1.63-.26-1.89Z"/>
      <path class="cls-4" d="M59.46,77.45c.57-.17,4.43.23,5.18.41.97.22,1.38,1.48.55,1.88-.65.32-5.87-.18-6.18-.71-.28-.48-.14-1.41.45-1.58Z"/>
      <path class="cls-4" d="M119.82,76.24c.59.58.15,1.43-.51,1.72s-4.77,1.03-5.31.76c-.63-.31-.61-1.53.15-1.87.58-.26,3.91-.84,4.62-.87.3-.01.84.05,1.05.26Z"/>
      <path class="cls-4" d="M117.4,71.59c.64-.06,1.14-.25,1.67.23s.39,1.3-.22,1.63c-.36.19-4.47.93-4.97.93-1.18-.02-1.26-1.66-.24-2.08.6-.25,3.01-.63,3.75-.7Z"/>
      <path class="cls-4" d="M51.36,71.58c.61-.18,4.47.38,5.13.67.78.34,1.13,1.39.41,1.83-.55.33-5.71-.45-5.98-.91s-.14-1.41.45-1.58Z"/>
      <path class="cls-4" d="M78.05,81.05c-1.06-.22-.95-1.92.1-2.15.31-.07.44.12.51.12h4.66c.66,0,.66,2.03,0,2.03-1.35,0-4.14.23-5.27,0Z"/>
      <path class="cls-4" d="M87.01,79.07c.68-.15,4.33-.17,5.01-.04,1.15.22.85,1.82-.2,2.01-.64.12-4.21.12-4.85,0-.98-.18-1.08-1.73.04-1.97Z"/>
      <path class="cls-1" d="M48.59,38.45c1.43,18.45-13.93,28.25-15.54,53.87-1.14,18.07,1.69,28.21,9.2,41.1"/>
      <path class="cls-1" d="M121.5,38.45c-1.43,18.45,14.16,28.25,15.54,53.87.98,18.08-2.1,28.21-9.2,41.1"/>
      <path class="cls-1" d="M76.23,127.67s-13.46-16.78-42.35-20.63"/>
      <path class="cls-1" d="M92.85,127.67s13.46-16.78,42.35-20.63"/>
    </g>
  </g>
</svg>