<?xml version="1.0" encoding="UTF-8"?>
<svg id="Layer_2" data-name="Layer 2" xmlns="http://www.w3.org/2000/svg" viewBox="0 0 167.33 167.33">
  <defs>
    <style>
      .cls-1 {
        fill: #fff;
        opacity: .75;
      }

      .cls-2 {
        fill: #1ca9d4;
      }

      .cls-3 {
        fill: none;
        stroke: #e6e6e6;
        stroke-linecap: round;
        stroke-miterlimit: 10;
        stroke-width: 5px;
      }

      .cls-4 {
        fill: #999;
      }
    </style>
  </defs>
  <g id="Layer_2-2" data-name="Layer 2">
    <g>
      <circle class="cls-1" cx="83.67" cy="83.67" r="81.16"/>
      <circle class="cls-3" cx="83.67" cy="83.67" r="81.16"/>
    </g>
  </g>
  <g id="Layer_1-2" data-name="Layer 1">
    <g>
      <path class="cls-4" d="M53.4,34.02c.93-.21,1.74.44,1.83,1.38.11,1.12-.3,3.94-.47,5.19-1.26,9.23-5.36,15.83-8.68,24.19s-5.84,17.72-6.18,26.39c-.42,10.92,5.72,21.18,9.23,31.23.93,2.67,2.45,6.99,2.79,9.71.19,1.54-1.27,2.42-2.33,1.44-.51-.48-1.28-4.28-1.57-5.27-2.58-8.68-6.76-16.7-9.33-25.32-3.48-11.64-.47-25.15,3.61-36.33,3.55-9.73,8.41-17.02,9.8-27.68.14-1.08.06-3.84.68-4.52.16-.18.4-.36.63-.41Z"/>
      <path class="cls-2" d="M27.26,88.13h-12.37s-.67-.37-.74-.45c-.56-.65-.11-2.08.74-2.08h12.52c-.54-.95-3.38-2.85-3.21-3.87s1.24-1.23,2.03-.67c.71.51,4.47,4.27,4.98,4.98.45.63.45,1.02,0,1.65-.51.71-4.27,4.47-4.98,4.98-1.1.79-2.2-.03-1.91-1.31l2.94-3.23Z"/>
      <path class="cls-2" d="M32.28,98.72c.22.24.51,3.17.68,3.86.4,1.65,1.21,3.44,2.13,4.86.29.46,1.77,2.19,1.82,2.35.38,1.25-.86,1.96-1.91,1.02-2.25-2-4.77-8.34-4.6-11.3.06-.96,1.25-1.47,1.89-.79Z"/>
      <path class="cls-4" d="M49.23,87.27c.9-.19,1.63.07,1.54,1.08-.08.93-1.52.9-2.1,1.78-.88,1.36.35,2.06.45,3.27.12,1.43-.7,2.73-1.8,3.56-.72.54-2.05,1.21-2.55.05-.67-1.57,2.06-1.34,2.26-3.02.14-1.2-1.15-1.89-.6-3.86.3-1.05,1.71-2.63,2.79-2.86Z"/>
      <path class="cls-4" d="M47.9,76.85c1.09-.15,1.75,1.05,1.01,1.76-.35.34-1.15.38-1.63.9-1.22,1.32.03,1.99.2,3.2.23,1.62-.44,2.82-1.72,3.75-.64.46-2.22,1.17-2.55.07-.42-1.41.97-1.29,1.68-1.97,1.47-1.42-.15-2.29-.22-3.67-.08-1.66,1.56-3.8,3.23-4.04Z"/>
      <path class="cls-4" d="M86.31,94.52l1.41-4.16c3.02-7.36,8.4-15.15,16.09-18.11,1-.38,3.73-1.3,4.66-1.01,1.08.34,1.22,2.05.2,2.59-.74.39-2.68.67-3.7,1.06-9.77,3.73-16.73,17.42-17.18,27.44-.31,6.96,4.03,12.69,10.6,14.7,1.29.39,3.64.5,4.58.93,1.2.55.89,2.31-.26,2.57s-4.04-.47-5.21-.82c-2.2-.66-4.09-1.75-5.98-3.01-.26,3.23-.18,6.52.15,9.74.17,1.69.97,4.64.9,6.1-.08,1.67-2.24,1.86-2.77.38-.34-.96-.66-3.72-.79-4.86-.35-2.97-.55-6.37-.47-9.36.03-1.09.47-3.72.3-4.6-.05-.23-1.38-2.03-1.66-2.51s-.55-1.06-.72-1.59c-.35-.08-.24.05-.33.19-.41.63-.76,1.53-1.18,2.23-.24.41-1.09,1.3-1.16,1.67-.14.72.14,1.42.15,2.07.11,4.82.19,11.71-1.09,16.32-.21.75-.59,1.51-1.51,1.45-.32-.02-.94-.39-1.11-.68-.47-.83.44-4.72.58-5.93.39-3.53.3-7.08.3-10.63l-3.62,2.11c-1.82.83-4.58,1.65-6.57,1.76-2.13.12-3.03-1.42-1.2-2.69,8.79-.61,15.63-6.8,15.1-15.98-.58-10.11-7.5-24.08-17.73-27.33-1.25-.4-4.37-.49-3.46-2.64.56-1.31,2.89-.53,3.94-.22,9.62,2.82,16.4,13.58,18.74,22.83Z"/>
      <path class="cls-4" d="M130.91,69.15c-.61-1.97-1.26-3.9-1.96-5.74-3.43-9-7.48-15.39-8.74-25.32-.17-1.38.3-4.57-1.98-4.06-1.21.28-1.05,1.91-1,2.87.54,11.38,7.26,21.95,10.87,32.83.89.74,2.56.46,2.81-.58Z"/>
      <path class="cls-4" d="M129.28,106.31c-.16.49-.3.98-.48,1.49-2.51,7.17-7.71,16.9-8.27,24.3-.16,2.11,2.16,2.44,2.73.8,1.4-9.02,5.85-17.08,8.78-25.63-.25-1.79-1.15-2.18-2.76-.96Z"/>
      <path class="cls-2" d="M137.18,91.61c.65,0,1.22-.54,1.61-1.01,1.01-1.23.82-3.53,3.11-2.83.89.28,2.36,3.39,2.69,4.31,2.31,6.42-.12,13.94-6.24,17.18-1,.53-3.06,1.63-4,.59s.04-1.91.38-2.86c.41-1.17.46-2.67,0-3.84-.59-1.49-1.66-1.35-2.78-2.2-1.62-1.22-2.59-3.32-2.84-5.3-3.54,3.09-4.71,6.99-2.49,11.3.46.89,1.09,1.16.87,2.35-.49,2.59-5.11-.57-6.11-1.41-5.33-4.47-6.45-11.68-3.05-17.71,3.47-6.15,10.23-7.69,11.19-15.59.13-1.09-.32-2.49,1.31-2.73,1.19-.17,2.89,1.61,3.66,2.46,3.33,3.68,4.56,7.8,3.57,12.71-.31,1.52-1,2.99-.88,4.57ZM132.47,76.54l-.26.08c-.35,2.04-1.3,4.03-2.5,5.69-2.45,3.37-6.25,5.33-8.45,8.9-2.69,4.37-2.49,9.75,1.2,13.44-.03-1.52-.07-2.78.27-4.31.69-3.07,2.8-5.91,5.35-7.7.97-.68,2.28-1.63,3.4-.65.74.65.37,1.64.47,2.49.16,1.35.71,3.49,1.97,4.22.55.32,1.13.26,1.73.69,1.75,1.25,2.65,4.25,2.49,6.32,4.24-3.04,5.32-8.73,3.36-13.45-.19-.14-1.03,1-1.27,1.21-2.16,1.87-5.65,1.85-5.99-1.55-.34-3.34,1.61-5.97,1.06-9.54-.35-2.25-1.52-4.07-2.81-5.87Z"/>
    </g>
  </g>
</svg>