<?xml version="1.0" encoding="UTF-8"?>
<svg id="Layer_2" data-name="Layer 2" xmlns="http://www.w3.org/2000/svg" viewBox="0 0 167.32 167.32">
  <defs>
    <style>
      .cls-1 {
        fill: #fff;
        opacity: .75;
        stroke: #e6e6e6;
        stroke-linecap: round;
        stroke-miterlimit: 10;
        stroke-width: 5px;
      }

      .cls-2 {
        fill: #1ca9d4;
      }

      .cls-3 {
        fill: #999;
      }
    </style>
  </defs>
  <g id="Layer_2-2" data-name="Layer 2">
    <circle class="cls-1" cx="83.66" cy="83.66" r="81.16"/>
  </g>
  <g id="Layer_1-2" data-name="Layer 1">
    <g id="white">
      <g>
        <path class="cls-3" d="M82.61,91.79h.02c1.68,0,3.21-.62,4.37-1.66l8.08,4.66c1,.58,2.28.23,2.85-.76.58-1,.23-2.28-.76-2.85l-8.08-4.66c.09-.43.13-.88.13-1.32,0-2.91-1.89-5.38-4.51-6.26v-14.5c0-1.15-.94-2.09-2.09-2.09s-2.09.94-2.09,2.09v14.5c-2.61.88-4.51,3.35-4.51,6.26,0,3.63,2.96,6.6,6.6,6.6ZM82.63,82.78c1.34,0,2.42,1.08,2.42,2.42s-1.08,2.42-2.42,2.42-2.42-1.08-2.42-2.42,1.08-2.42,2.42-2.42Z"/>
        <g>
          <path class="cls-2" d="M139.58,95.62c-.53-.77-1.59-.96-2.36-.42l-3.95,2.83c1.87-7.16,2.19-14.7.93-21.99-1.5-8.68-5.25-16.9-10.83-23.78-8-9.84-19.29-16.39-31.8-18.43-.93-.15-1.8.48-1.95,1.4-.15.93.48,1.8,1.4,1.95,11.69,1.91,22.24,8.02,29.71,17.22,9.84,12.11,13.19,27.95,9.22,42.91l-1.78-4.8c-.35-.87-1.46-1.28-2.33-.93s-1.29,1.33-.95,2.2l3.67,9.21c.05.13.11.25.19.36.55.75,1.6.93,2.37.39l8.06-5.77h0c.74-.55.91-1.58.39-2.34Z"/>
          <path class="cls-2" d="M52.71,47.37c5.49-4.46,11.92-7.67,18.73-9.38l-3.07,4.95c-.5.79-.25,1.83.55,2.33.79.5,1.84.25,2.33-.55l5.22-8.43c.07-.12.13-.24.17-.37.29-.89-.2-1.85-1.09-2.14l-9.43-3.05c-.89-.29-1.85.2-2.14,1.09-.29.89.2,1.85,1.09,2.14l3.75,1.22c-6.62,1.92-12.86,5.18-18.25,9.56-8.6,6.99-14.62,16.34-17.42,27.03-2.74,10.48-2.17,21.35,1.64,31.43.24.65.88,1.09,1.58,1.09.2,0,.4-.04.6-.11.88-.33,1.32-1.31.98-2.19-7.38-19.51-1.45-41.46,14.76-54.63Z"/>
          <path class="cls-2" d="M123.04,115.26c-.73-.58-1.8-.47-2.38.27-2.07,2.52-4.39,4.83-6.93,6.89-19.23,15.62-46.85,14.16-64.28-2.92l5.04.67c.92.12,1.78-.53,1.9-1.46.12-.93-.53-1.78-1.46-1.9l-9.83-1.29c-.14-.01-.27-.01-.41,0-.93.1-1.6.94-1.5,1.87l1.1,9.85c.09.86.82,1.51,1.68,1.51.06,0,.12,0,.19,0,.93-.1,1.6-.94,1.5-1.87l-.55-4.89c8.61,8.41,19.84,13.53,31.96,14.51,1.4.12,2.81.17,4.21.17,11.85,0,23.29-4.04,32.58-11.59,2.71-2.21,5.19-4.67,7.41-7.38v-.02s.04-.02.04-.04c.58-.73.47-1.8-.27-2.38Z"/>
        </g>
        <path class="cls-3" d="M82.63,119.93c19.16,0,34.74-15.58,34.74-34.74s-15.58-34.74-34.74-34.74-34.74,15.58-34.74,34.74,15.58,34.74,34.74,34.74ZM55.19,71.74l1.58.91c1,.58,2.28.23,2.85-.76.58-1,.23-2.28-.76-2.85l-1.57-.9c2.21-3.27,5.03-6.09,8.3-8.31v.03l.9,1.57c.58,1,1.85,1.34,2.85.76,1-.58,1.34-1.85.76-2.85l-.91-1.58c3.55-1.75,7.4-2.77,11.35-3.04v1.83c0,1.15.94,2.09,2.09,2.09s2.09-.94,2.09-2.09v-1.83c3.94.27,7.8,1.3,11.35,3.04l-.91,1.58c-.58,1-.23,2.28.76,2.85.99.58,2.28.23,2.85-.76l.9-1.57c3.27,2.21,6.09,5.03,8.3,8.3l-1.57.9c-1,.58-1.34,1.85-.76,2.85s1.85,1.34,2.85.76l1.58-.91c1.75,3.55,2.77,7.4,3.04,11.35h-1.83c-1.15,0-2.09.94-2.09,2.09s.94,2.09,2.09,2.09h1.83c-.27,3.94-1.3,7.79-3.04,11.35l-1.58-.91c-1-.58-2.28-.23-2.85.76-.58,1-.23,2.28.76,2.85l1.57.9c-2.21,3.27-5.03,6.09-8.3,8.3l-.9-1.57c-.59-.99-1.88-1.31-2.86-.72-.97.58-1.29,1.82-.75,2.8l.91,1.58c-3.55,1.75-7.4,2.77-11.35,3.04v-1.83c0-1.15-.94-2.09-2.09-2.09s-2.09.94-2.09,2.09v1.83c-3.94-.27-7.8-1.3-11.35-3.04l.91-1.58c.57-1,.22-2.28-.78-2.85-.99-.57-2.26-.23-2.84.76l-.9,1.57c-3.27-2.21-6.09-5.03-8.3-8.31l1.57-.9c.99-.59,1.33-1.86.74-2.86-.58-.98-1.84-1.32-2.84-.76l-1.58.91c-1.75-3.55-2.77-7.4-3.04-11.35h1.83c1.15,0,2.09-.94,2.09-2.09s-.94-2.09-2.09-2.09h-1.83c.27-3.94,1.29-7.79,3.04-11.35Z"/>
      </g>
    </g>
  </g>
</svg>