<?xml version="1.0" encoding="UTF-8"?>
<svg id="Layer_2" data-name="Layer 2" xmlns="http://www.w3.org/2000/svg" viewBox="0 0 167.33 167.33">
  <defs>
    <style>
      .cls-1 {
        fill: #fff;
        opacity: .75;
      }

      .cls-2 {
        fill: #1ca9d4;
      }

      .cls-3 {
        fill: none;
        stroke: #e6e6e6;
        stroke-linecap: round;
        stroke-miterlimit: 10;
        stroke-width: 5px;
      }

      .cls-4 {
        fill: #999;
      }
    </style>
  </defs>
  <g id="Layer_2-2" data-name="Layer 2">
    <g>
      <circle class="cls-1" cx="83.67" cy="83.67" r="81.16"/>
      <circle class="cls-3" cx="83.67" cy="83.67" r="81.16"/>
    </g>
  </g>
  <g id="Layer_1-2" data-name="Layer 1">
    <g id="_1xuhWb" data-name="1xuhWb">
      <g>
        <path class="cls-2" d="M125.73,48.01c.19.16.68,1.12.82,1.42,1.76,3.74,3.54,8.03,5.16,11.86.45,1.07,2.04,4.47,1.79,5.33-.7,2.38-5.04-.74-6.3.1-.2.13-1.32,3.67-1.6,4.31-6.37,14.49-21.18,22.96-37.02,20.86-8.69-1.15-15.52-6.82-23.74-9.36-10.89-3.36-23.18-2.11-33.75,1.82-1.24.46-4.57,2.25-5.46,2.36-1.38.17-2.35-.81-1.94-2.19.3-1,5.61-2.92,6.82-3.35,14.79-5.29,27.82-5.39,42.24,1.01,3.7,1.64,8.91,5.19,12.79,5.65,14.38,1.72,27.24-10.3,29.85-23.81-1.17-.17-4.53-.03-4.92-1.35-.33-1.1.68-1.99,1.36-2.79,3.29-3.86,7.84-7.18,11.11-11.12.82-.6,1.72-1.62,2.78-.75ZM129.35,63.78l-4.85-11.34-.59-.13-8.74,8.76c3.54.25,4.21.33,3.43,3.9-1.63,7.4-7.07,15.49-13.01,20.09-1.33,1.03-2.76,1.87-4.13,2.84,10.84-2.01,18.46-10.56,22.4-20.51,1.51-3.81.27-5,5.5-3.61Z"/>
        <g>
          <path class="cls-4" d="M55.75,96.94c15.27-2.07,20.36,23.46,35.84,16.93,7.12-3,9.86-10.35,18.89-9.13,2.8.38,5.86,2.6,8.85,2.76,5.2.28,9.16-6.51,11.81-10.12.92-.77,2.51.22,2.46,1.25-.09,1.69-6.01,8.32-7.59,9.46-8.49,6.15-12.88-2.06-19.89-.26-3.35.86-7.71,5.7-11.06,7.62-13.65,7.82-20.27-4.06-28.96-11.71-10.99-9.68-14.88.99-24.72,3.67-4.63,1.26-8.46.25-12.82-1.36-1.61-.59-5.52-1.62-4.86-3.79.59-1.95,3.93.29,5.1.73,5.5,2.04,9.32,3.05,14.88.33,3.89-1.9,7.61-5.76,12.08-6.37Z"/>
          <path class="cls-4" d="M133.06,90.67c-12.46,4.69-25.07,9.86-38.59,10.23-12.7.36-16.1-3-26.75-7.77-14.52-6.51-28.16-3.67-42.07,2.79-1.46.43-2.61-1.19-1.66-2.37.51-.63,4.27-2.13,5.27-2.53,12.29-4.86,24.64-6.43,37.25-1.65,5.89,2.23,11.01,6.12,17.19,7.63,16.42,4,32.91-3.86,48.15-8.85,1.65-.24,2.13,1.33,1.2,2.52Z"/>
        </g>
      </g>
    </g>
  </g>
</svg>