<?xml version="1.0" encoding="UTF-8"?>
<svg id="Layer_1" xmlns="http://www.w3.org/2000/svg" version="1.1" viewBox="0 0 750.1 163.7">
  <!-- Generator: Adobe Illustrator 29.5.0, SVG Export Plug-In . SVG Version: 2.1.0 Build 137)  -->
  <defs>
    <style>
      .st0 {
        fill: #fff;
      }
    </style>
  </defs>
  <path class="st0" d="M433.2,24.4c-44.5,0-80.5,25.7-80.5,57.5s36,57.5,80.5,57.5,80.5-25.7,80.5-57.5-36-57.5-80.5-57.5ZM433.2,112.5c-30.7,0-53.7-16.2-53.7-30.6s23-30.6,53.7-30.6,53.7,16.2,53.7,30.6-22.9,30.6-53.7,30.6h0Z"/>
  <path class="st0" d="M169.1,24.4c-31.8,0-57.5,25.7-57.5,57.5s25.7,57.5,57.5,57.5c31.8,0,57.5-25.7,57.5-57.5,0-31.8-25.7-57.5-57.5-57.5ZM199.7,81.8c0,16.9-13.7,30.6-30.6,30.7-16.9,0-30.7-13.7-30.7-30.6s13.7-30.7,30.6-30.7,30.7,13.7,30.7,30.6Z"/>
  <path class="st0" d="M331.7,109.9h-45.6l58.2-76.8c1.9-2.5.1-6.2-3.1-6.2h-83.6c-8.3,0-15.4,7.6-13.6,16.2,1.3,6.3,7.2,10.6,13.6,10.6h37.4l-58.2,76.9c-1.9,2.5-.1,6.1,3,6.1h91.4c6.5,0,12.4-4.3,13.6-10.6,1.8-8.6-4.8-16.2-13.1-16.2h0Z"/>
  <path class="st0" d="M638.5,40.4v92.5c0,.8-.3,1.7-.8,2.4-1.3,1.7-3.8,2-5.5.6l-72.5-57.5v45c0,7.6-6.3,13.6-13.8,13.4-7.3-.2-13-6.5-13-13.8V30.8c0-.9.3-1.8.8-2.5,1.3-1.6,3.8-1.9,5.4-.6l72.5,57.5v-44.6c0-7.3,5.7-13.5,12.9-13.8,7.7-.3,14,5.8,14,13.4h0Z"/>
</svg>