<?xml version="1.0" encoding="UTF-8"?>
<svg id="logo_znak_cmyk_100_100" data-name="logo_znak cmyk 100/100" xmlns="http://www.w3.org/2000/svg" viewBox="0 0 76.54 93.54">
  <defs>
    <style>
      .cls-1 {
        fill: #fff;
        fill-rule: evenodd;
      }

      .cls-2 {
        fill: #e30613;
        stroke: #e30613;
        stroke-miterlimit: 2.61;
        stroke-width: .12px;
      }
    </style>
  </defs>
  <path class="cls-2" d="M45.17,35.77h-.21s-.12,0-.12,0h-10.99s0-11.43,0-11.43h11.01s.11,0,.11,0c3.16-.03,5.72,2.56,5.72,5.72s-2.44,5.6-5.52,5.71M10.95,1.44v57.33h35.16c1.64,0,3.25-.27,4.79-.86,1.46-.55,2.79-1.34,3.94-2.4,1.14-1.04,2.02-2.29,2.67-3.7.7-1.52.99-3.16.99-4.83,0-.83-.14-1.66-.37-2.46-.25-.87-.61-1.7-1.07-2.48-.47-.79-1.05-1.51-1.72-2.14-.67-.63-1.44-1.1-2.3-1.42l-.47-.17v-1.2l.41-.19c1.55-.73,2.91-1.77,3.72-3.31.7-1.33,1.12-2.75,1.12-4.26s-.26-3.09-.85-4.53c-.56-1.36-1.39-2.53-2.5-3.51-1.2-1.06-2.62-1.8-4.13-2.31-1.82-.61-3.77-.84-5.69-.84h-16.98v23h19.05c3.15,0,5.7,2.57,5.7,5.72s-2.56,5.72-5.72,5.72c-.09,0-.18,0-.27,0-.11,0-.22,0-.33,0h-28.99V7.61h27.53c3.07,0,6.14.41,9.06,1.39,2.84.96,5.48,2.4,7.74,4.39,2.32,2.04,4.11,4.56,5.28,7.41,2.52,6.12.83,11.73-3.06,16.69,5.78,4.31,6.28,12.52,3.41,18.74-1.23,2.68-2.95,5.07-5.13,7.07-2.13,1.95-4.62,3.45-7.32,4.48-2.73,1.04-5.61,1.55-8.53,1.55H10.95v6.17h35.16c3.67,0,7.29-.65,10.72-1.95,3.43-1.3,6.59-3.22,9.3-5.7,2.78-2.55,4.99-5.62,6.57-9.04,2.17-4.7,3.24-9.96,1.67-15-.43-1.4-1.06-2.74-1.86-3.96-.33-.5-1.01-1.26-1.25-1.71l-.21-.4.27-.36c1.2-1.65,2.02-3.51,2.47-5.5.61-2.67.55-5.46.07-8.14-.91-5.05-3.99-11.85-8.26-14.94l-.03-.02-.03-.02c-2.87-2.53-6.23-4.39-9.85-5.61-3.55-1.2-7.29-1.72-11.03-1.72H10.95Z"/>
  <g>
    <path class="cls-1" d="M18.98,87.75c.27.33.42.74.42,1.17v1.36c0,1.01-.82,1.82-1.82,1.82h-6.59v-8.6h6.49c1.01,0,1.82.83,1.82,1.83v1.39c0,.37-.11.73-.32,1.03M22.39,89.83l-.88,2.28h-1.56l2.92-7.44c.13-.34.35-.64.64-.87h.01s0-.01,0-.01c.32-.23.7-.35,1.09-.35s.78.12,1.1.36c.3.23.52.53.66.88l2.9,7.44h-1.55l-.89-2.28h-4.43ZM36.63,90.66l2.35-5.99c.13-.34.35-.64.64-.87h.01s0-.02,0-.02c.32-.23.7-.35,1.09-.35s.78.12,1.1.36c.3.23.52.53.66.88l2.9,7.44h-1.55l-.89-2.28h-2.86l.35-.89h0l.22-.56h1.73l-1.25-3.19c-.07-.18-.2-.32-.4-.32s-.33.15-.4.32l-1.24,3.18h0l-.62,1.58h0s-.29.74-.29.74h0l-.55,1.4h-6.08c-.87,0-1.59-.71-1.59-1.58v-7.03h1.45v7.03c0,.07.07.13.14.13h5.09ZM47.58,85.32v6.78h-1.45v-7.33c0-.27.07-.54.23-.76.14-.21.36-.36.6-.44.27-.09.57-.09.83.01.26.09.49.27.64.49l5.09,6.25v-6.83h1.45v7.37c0,.27-.07.53-.22.75h0s0,.02,0,.02c-.15.21-.36.37-.61.45h-.02c-.26.08-.54.07-.8-.03-.26-.09-.48-.26-.64-.48l-5.08-6.27ZM64.25,83.5v1.45h-5.66c-.57,0-1.05.47-1.05,1.05v3.62c0,.57.48,1.04,1.05,1.04h5.66v1.45h-5.66c-1.37,0-2.49-1.11-2.49-2.49v-3.62c0-1.37,1.11-2.5,2.49-2.5h5.66ZM66.81,87.08h6.07v1.45h-6.07v1.77c0,.19.16.35.35.35h6.11v1.45h-6.11c-.99,0-1.79-.81-1.79-1.8v-5c0-.99.8-1.8,1.79-1.8h6.11v1.44h-6.11c-.2,0-.35.17-.35.36v1.78ZM12.44,84.96v2.14h5.04c.21,0,.38-.16.38-.37v-1.39c0-.21-.17-.38-.38-.38h-5.04ZM12.44,88.55v2.11h5.14c.21,0,.38-.16.38-.37v-1.36c0-.21-.17-.37-.38-.37h-5.14ZM22.96,88.38h3.3l-1.25-3.19c-.07-.18-.2-.32-.4-.32s-.33.15-.4.32l-1.25,3.18Z"/>
    <path class="cls-2" d="M9.42,87.75c.27.33.42.74.42,1.17v1.36c0,1.01-.82,1.82-1.82,1.82H1.42v-8.6h6.49c1.01,0,1.82.83,1.82,1.83v1.39c0,.37-.11.73-.32,1.03M2.87,84.96v2.14h5.04c.21,0,.38-.16.38-.37v-1.39c0-.21-.17-.38-.38-.38H2.87ZM2.87,88.55v2.11h5.14c.21,0,.38-.16.38-.37v-1.36c0-.21-.17-.37-.38-.37H2.87Z"/>
  </g>
</svg>