<?xml version="1.0" encoding="UTF-8"?>
<svg id="Layer_1" xmlns="http://www.w3.org/2000/svg" version="1.1" viewBox="0 0 224 34">
  <!-- Generator: Adobe Illustrator 29.5.0, SVG Export Plug-In . SVG Version: 2.1.0 Build 137)  -->
  <defs>
    <style>
      .st0 {
        fill: #fff;
      }
    </style>
  </defs>
  <path class="st0" d="M115,16.6c.8-1.9,2.5-3.1,5-3.1s4.1,1.2,4.7,3.1h-9.7,0ZM49,0c-1.9,0-3.6,1.6-3.6,3.6s1.7,3.4,3.6,3.4,3.6-1.7,3.6-3.5-1.6-3.5-3.6-3.5ZM46.7,29.3h4.8V9.6h-4.8v19.7h0ZM96.5,25.3c-3.2,0-6-2.5-6-5.9s2.6-5.9,6-5.9,6,2.6,6,5.9-2.7,5.9-6,5.9h0ZM72.8,25.3c-3.3,0-6-2.6-6-5.8s2.7-5.9,5.9-5.9,6,2.6,6,5.9-2.7,5.8-6,5.8h0ZM54.9,29.3h4.8V.2h-4.8v29h0ZM152.4,14.1v-4.5h-4.8v19.7h4.8v-8.3c0-4,4.4-6.5,8.7-6.5v-4.9h-.5c-3.7,0-6.3,1.3-8.2,4.5h0ZM137.3,14.1v-4.5h-4.8v19.7h4.8v-8.3c0-4,4.4-6.5,8.7-6.5v-4.9h-.5c-3.7,0-6.3,1.3-8.2,4.5h0ZM120.2,8.8c-6,0-10.8,4.6-10.8,10.3s4.2,10.8,10.5,10.8,6.8-1.8,9-4.8l-3.7-3c-1.1,1.9-3.2,3-5.2,3s-5.3-1.9-5.6-4.7h15.6v-1.4c0-6-4-10.3-9.8-10.3ZM34.9,20.8l-4.4-11.2h-3.3l-4.4,11.2-4.4-11.2h-5.2l7.7,19.7h3.3l4.6-11.7,4.6,11.7h3.3l7.6-19.7h-5.2l-4.4,11.2h0ZM71.8,9.1c-5.3.5-9.6,5-9.6,10.4s4.9,10.4,10.7,10.4,10.7-4.8,10.7-10.4-.9-4.7-2.3-6.4L70.6.2h-6.2l7.3,8.9h0ZM96.5,8.8c-2.2,0-4.3.7-6,1.8V.2h-4.8v19.2c0,5.8,4.8,10.5,10.7,10.5s10.8-4.7,10.8-10.6-4.8-10.5-10.7-10.5h0ZM165.5,0c-1.9,0-3.6,1.6-3.6,3.6s1.6,3.4,3.7,3.4,3.5-1.4,3.5-3.3S167.5,0,165.5,0h0ZM163.2,29.3h4.8V9.6h-4.8v19.7h0ZM181.1,8.8c-6,0-10.7,4.6-10.7,10.6s4.2,10.5,10.5,10.5,6.8-1.8,9-4.8l-3.3-2.7c-1.2,1.7-3.3,2.8-5.8,2.8s-5.2-1.9-5.4-4.7h15.5v-1.6c0-5.8-4-10.1-9.8-10.1h0ZM175.9,16.6c.8-1.9,2.5-3.1,5-3.1s4,1.2,4.7,3.1h-9.7ZM197.8,15.3c0-1.2,1.7-2.2,3.9-2.2s4.7,1.1,6.2,2.8l2.9-3.5c-2.8-2.4-5.5-3.6-9-3.6s-8.8,2-8.8,6.5,4.8,6,8.8,6.3c2.2.2,4.2.3,4.2,1.7s-2.2,2.3-4.2,2.3-4.8-1-6.6-3.1l-3.1,3.2c2.5,2.9,6,4.3,9.5,4.3s9.1-2,9.1-6.7-4.9-5.8-8.7-6.2c-2.4-.2-4.3-.5-4.3-1.7h0Z"/>
</svg>