<?xml version="1.0" encoding="UTF-8"?>
<svg id="Layer_2" data-name="Layer 2" xmlns="http://www.w3.org/2000/svg" viewBox="0 0 125.59 19.84">
  <defs>
    <style>
      .cls-1, .cls-2 {
        fill: none;
      }

      .cls-2 {
        stroke: #fff;
        stroke-linecap: round;
        stroke-linejoin: round;
        stroke-width: 1.83px;
      }

      .cls-3 {
        fill: #1d1d1b;
      }

      .cls-4 {
        fill: #fff;
      }

      .cls-5 {
        fill: #e1251b;
        stroke: #e84137;
        stroke-miterlimit: 10;
        stroke-width: .25px;
      }
    </style>
  </defs>
  <g id="TAPE_body_" data-name="TAPE (body)">
    <g>
      <g>
        <path class="cls-3" d="M74.39,19.84h41.28c5.48,0,9.92-4.44,9.92-9.92S121.15,0,115.67,0h-41.28c-5.48,0-9.92,4.44-9.92,9.92s4.44,9.92,9.92,9.92"/>
        <path class="cls-4" d="M110.74,10.78h-2.91c-.5,0-.91-.41-.91-.91s.41-.91.91-.91h2.91c.5,0,.91.41.91.91s-.41.91-.91.91"/>
        <path class="cls-4" d="M117.26,10.78h-2.91c-.5,0-.91-.41-.91-.91s.41-.91.91-.91h2.91c.5,0,.91.41.91.91s-.41.91-.91.91"/>
        <path class="cls-4" d="M117.26,6.58h-9.43c-.5,0-.91-.41-.91-.91s.41-.91.91-.91h9.43c.5,0,.91.41.91.91s-.41.91-.91.91"/>
        <g>
          <polygon class="cls-4" points="75.06 6.54 70.98 6.54 70.98 4.5 81.14 4.5 81.14 6.54 77.07 6.54 77.07 15.35 75.06 15.35 75.06 6.54"/>
          <g>
            <path class="cls-4" d="M90.53,15.37h2.19l-4.65-10.31c-.16-.36-.52-.59-.91-.59h-1.45c-.39,0-.74.23-.91.58l-4.73,10.31h2.26l4.08-9.13,4.1,9.13Z"/>
            <line class="cls-2" x1="86.41" y1="12.21" x2="90.1" y2="12.21"/>
          </g>
          <path class="cls-4" d="M100.58,10.02c1.39,0,1.76-.34,1.76-1.67,0-1.46-.33-1.82-1.67-1.82h-4.55v3.49h4.46ZM94.13,4.5h6.78c1.12,0,1.59.05,1.99.21,1.08.41,1.46,1.32,1.46,3.49,0,1.66-.21,2.57-.74,3.14-.46.51-1.12.68-2.47.68h-5.02v3.32h-1.99V4.5Z"/>
          <path class="cls-4" d="M117.26,14.98h-9.43c-.5,0-.91-.41-.91-.91s.41-.91.91-.91h9.43c.5,0,.91.41.91.91s-.41.91-.91.91"/>
        </g>
        <polygon class="cls-1" points="88.91 11.45 88.91 11.45 88.91 11.45 88.91 11.45"/>
      </g>
      <g>
        <path class="cls-5" d="M.52,4.12h1.28c.22,0,.4.18.4.4v8.13c0,.33.27.6.6.6h5.57c.22,0,.4.18.4.4v1.31c0,.22-.18.4-.4.4H1.12c-.55,0-.99-.45-.99-.99V4.52c0-.22.18-.4.4-.4Z"/>
        <path class="cls-5" d="M21.53,4.12h1.6c.38,0,.72.21.89.55l3.95,7.9,3.94-7.9c.17-.34.51-.55.89-.55h1.55c.55,0,.99.45.99.99v10.23h-2.03s.08-9.24.08-9.24l-4.65,9.24h-1.63s-4.62-9.24-4.62-9.24l.05,9.24h-2.02V5.12c0-.55.45-.99.99-.99Z"/>
        <path class="cls-5" d="M37.36,5.12c0-.55.45-.99.99-.99h6.02c1.16,0,1.64.05,2.06.22,1.12.42,1.51,1.36,1.51,3.62,0,1.72-.22,2.66-.77,3.25-.47.52-1.16.71-2.56.71h-5.2s0,3.43,0,3.43h-2.06V5.12ZM44.04,9.83c1.44,0,1.82-.35,1.82-1.73,0-1.51-.34-1.88-1.72-1.88h-4.71s0,3.62,0,3.62h4.62Z"/>
        <path class="cls-5" d="M49.51,4.12h2.08v4.46s7.09,0,7.09,0v-4.46h2.07v11.23h-2.07v-4.68s-7.09,0-7.09,0v4.68h-2.08V4.12Z"/>
        <path class="cls-5" d="M16.38,4.56c.19-.27.51-.44.84-.44h2.11s-4.92,6.73-4.92,6.73c-.13.18-.2.39-.2.61v2.85c0,.57-.46,1.03-1.03,1.03h0c-.57,0-1.03-.46-1.03-1.03v-2.85c0-.22-.07-.44-.2-.61l-4.96-6.73h2.15c.33,0,.65.16.84.43l2.37,3.33c.41.58,1.28.58,1.69,0l2.35-3.32Z"/>
      </g>
    </g>
  </g>
</svg>