<?xml version="1.0" encoding="UTF-8"?>
<svg id="Layer_2" data-name="Layer 2" xmlns="http://www.w3.org/2000/svg" viewBox="0 0 381.88 386.32">
  <defs>
    <style>
      .cls-1 {
        fill: #103776;
      }

      .cls-2 {
        fill: #1d1d1b;
      }

      .cls-3 {
        fill: #fff;
      }

      .cls-4 {
        fill: #ff1d25;
      }
    </style>
  </defs>
  <g id="Layer_1_copy" data-name="Layer 1 copy">
    <circle class="cls-4" cx="12.61" cy="191.21" r="8.42"/>
    <g>
      <path class="cls-2" d="M21.24,120.97c-3.97-.66-7.16,1.65-8.51,5.3-1.83,4.94.63,10.05,7.59,12.62,7.01,2.59,12.15.27,13.96-4.64,1.34-3.62.46-7.45-2.93-9.54l1.63-4.36c5.32,3.03,7.57,9.09,5.24,15.39-2.75,7.45-10.32,10.84-19.48,7.45-9.17-3.38-12.7-10.91-9.96-18.33,2.24-6.06,7.59-9.54,14.08-8.25l-1.61,4.37Z"/>
      <path class="cls-2" d="M40.1,118.75l1.05-1.72c-.41-2.64-2.47-6.01-9.49-10.82l-10.64-7.32,9.79-16.08,22.74,13.85,1.8-2.96,9.6,5.85-2.29,3.77-6.26-3.81-10.66,17.51,6.3,3.84-2.29,3.77-9.64-5.87ZM51.26,100.43l-19.35-11.78-5.33,8.75,7.38,5.05c5.32,3.67,8.54,7.01,10.01,9.95l7.29-11.97Z"/>
      <path class="cls-2" d="M39.47,71.37l12.73-14.3,2.96,2.64-9.67,10.86,6.95,6.19,9-10.11,2.95,2.63-9,10.11,6.98,6.22,9.79-10.99,2.96,2.64-12.85,14.43-22.81-20.31Z"/>
      <path class="cls-2" d="M75.8,70.63l.68-.58c2.81-2.33,1.65-5.54-3.56-12.69l-8.48-11.59,15.17-11.96,18.91,23.99-3.57,2.82-16.5-20.92-8.19,6.46,6.85,9.46c5.76,7.96,7.64,13.04,2.19,17.35l-1.03.81-2.47-3.14Z"/>
      <path class="cls-2" d="M102.57,54.99l-4.43-32.15,4.72-2.47,23.9,21.96-4.33,2.27-6.22-5.87-10.57,5.53,1.26,8.46-4.33,2.27ZM113.22,35.92l-10.03-9.46-.21.11,2.05,13.63,8.19-4.29Z"/>
      <path class="cls-2" d="M122.54,11.36l4.41-1.33,3.84,12.7,14.57-4.4-3.84-12.7,4.42-1.34,8.83,29.23-4.42,1.34-3.85-12.75-14.57,4.41,3.85,12.74-4.41,1.33-8.84-29.23Z"/>
      <path class="cls-2" d="M174.28,31.29c-7.89.77-14.27-4.57-15.22-14.27-.95-9.72,4.28-16.18,12.17-16.95,7.86-.77,14.26,4.56,15.2,14.27.95,9.72-4.29,16.18-12.16,16.95ZM171.64,4.26c-5.24.51-8.75,4.91-8.03,12.32.72,7.4,5.02,11.04,10.25,10.53,5.22-.51,8.75-4.91,8.03-12.32-.72-7.41-5.03-11.04-10.25-10.53Z"/>
      <path class="cls-2" d="M212.26.58l11.03,1.9c6.41,1.1,8.9,5.09,8.14,9.54-.65,3.76-3.28,5.25-6.16,5.48l-.05.29c2.96.68,5.77,3.87,4.97,8.53-.79,4.62-4.55,7.56-11.55,6.35l-11.54-1.98,5.18-30.1ZM218.85,28.7c4.37.75,6.41-.85,6.85-3.38.49-2.87-1.38-5.61-5.03-6.24l-6.72-1.15-1.66,9.64,6.56,1.13ZM220.65,15.44c3.06.53,5.76-.92,6.26-3.83.43-2.5-.96-4.69-4.56-5.31l-6.2-1.07-1.58,9.16,6.08,1.05Z"/>
      <path class="cls-2" d="M259.77,30.81l-2.97-1.33-5.61,12.5-4.21-1.89,12.5-27.88,4.21,1.89-5.28,11.78,1.38.62,15.82-7.05,5.13,2.3-16.75,7.48,4.67,20.59-5.13-2.3-3.76-16.7Z"/>
      <path class="cls-2" d="M281.02,58.49c-6.57-4.45-8.06-12.63-2.59-20.7,5.48-8.08,13.63-9.71,20.19-5.26,6.54,4.43,8.05,12.61,2.58,20.7-5.48,8.08-13.64,9.7-20.18,5.27ZM296.27,36.01c-4.36-2.95-9.87-1.81-14.04,4.35-4.17,6.16-3.2,11.7,1.16,14.65,4.34,2.94,9.87,1.81,14.04-4.35,4.18-6.16,3.19-11.71-1.16-14.65Z"/>
      <path class="cls-2" d="M318.51,48.17l7.75,7.66c5.05,4.99,4.53,10.47.57,14.47-3.96,4.01-9.47,4.59-14.51-.39l-4.46-4.41-7.55,7.64-3.28-3.24,21.48-21.73ZM314.76,66.83c3.21,3.17,6.33,2.67,8.76.2s2.85-5.53-.4-8.74l-4.12-4.07-8.4,8.5,4.16,4.11Z"/>
      <path class="cls-2" d="M340.47,71.34l11.28,15.48-3.21,2.33-8.56-11.75-7.52,5.48,7.97,10.95-3.19,2.33-7.97-10.94-7.56,5.51,8.67,11.9-3.21,2.34-11.38-15.62,24.69-17.99Z"/>
      <path class="cls-2" d="M357.51,96.26l8.73,17.04-3.53,1.81-6.63-12.94-8.28,4.24,6.18,12.05-3.52,1.8-6.18-12.05-8.32,4.26,6.71,13.1-3.53,1.81-8.81-17.2,27.18-13.93Z"/>
    </g>
    <g>
      <path class="cls-2" d="M6.12,254.19l-1.19-4.44,25.71-6.91-3.73-13.89-25.71,6.91-1.19-4.44,29.51-7.93,6.12,22.77-29.51,7.93Z"/>
      <path class="cls-2" d="M38.51,253.6l4.68,9.83c3.05,6.41.69,11.38-4.39,13.8-5.09,2.42-10.46,1.09-13.51-5.3l-2.69-5.66-9.7,4.61-1.98-4.16,27.59-13.12ZM28.64,269.88c1.93,4.07,5.04,4.66,8.17,3.17s4.56-4.23,2.6-8.36l-2.49-5.23-10.79,5.13,2.51,5.28Z"/>
      <path class="cls-2" d="M50.67,277.7l10.88,15.77-3.27,2.25-8.26-11.97-7.66,5.29,7.69,11.15-3.25,2.25-7.69-11.15-7.7,5.31,8.36,12.12-3.27,2.25-10.98-15.92,25.15-17.35Z"/>
      <path class="cls-2" d="M69.63,303.03l-9.54,23.82.26.25,23.5-10.29,4.01,3.89-21.25,21.93-3.15-3.05,15.38-15.87-.2-.2-21.81,9.57-2.61-2.53,8.89-22.12-.2-.2-15.39,15.88-3.15-3.05,21.25-21.93,4.02,3.89Z"/>
      <path class="cls-2" d="M98.79,328l-11.62,19.19.24.15,24.92-11.13,3.65,2.21-15.83,26.13-3.94-2.39,11.61-19.16-.24-.15-24.87,11.12-3.64-2.2,15.82-26.12,3.9,2.36Z"/>
      <path class="cls-2" d="M115.73,367.61l1.72.64c2.14.8,3.54-.06,4.71-1.32l.79-.87-2-25.22,4.58,1.72,1.29,19.34,12.87-14.02,4.52,1.7-18.75,19.92c-2.32,2.38-4.74,4.32-9.21,2.64l-1.95-.73,1.42-3.8Z"/>
      <path class="cls-2" d="M155.44,352.24l5.97,24.96.35.06,13.25-21.98,5.53.86-4.68,30.19-4.33-.67,3.39-21.85-.28-.04-12.28,20.42-3.6-.56-5.52-23.2-.28-.04-3.39,21.86-4.33-.67,4.68-30.19,5.53.86Z"/>
      <path class="cls-2" d="M201.61,372.64l-13.53.37-.11-3.86,13.53-.37.11,3.86Z"/>
      <path class="cls-2" d="M218.32,370.29l-3.2.56,2.38,13.49-4.54.8-5.31-30.09,4.54-.8,2.24,12.71,1.48-.26,9.13-14.71,5.54-.98-9.65,15.6,15.42,14.41-5.54.98-12.49-11.7Z"/>
      <path class="cls-2" d="M246.33,378.32l-.65-32.45,4.97-1.9,21.17,24.59-4.57,1.75-5.49-6.55-11.14,4.26.27,8.55-4.57,1.75ZM259.12,360.61l-8.86-10.56-.22.09.45,13.78,8.63-3.3Z"/>
      <path class="cls-2" d="M266.79,336.57l5.12,8.69c2.13,3.62,4.77,3.63,8.2,1.61,2.2-1.29,4.45-3.05,6.11-4.74l-7.43-12.62,3.93-2.32,15.5,26.32-3.93,2.32-6.07-10.31c-1.57,1.65-3.57,3.26-6.1,4.75-5.76,3.39-10.68,3.17-14.12-2.71l-5.12-8.69,3.92-2.31Z"/>
      <path class="cls-2" d="M288.97,322.49l14.56-12.43,2.58,3.02-11.06,9.44,6.04,7.08,10.3-8.79,2.57,3-10.3,8.79,6.07,7.11,11.19-9.56,2.58,3.01-14.7,12.55-19.83-23.22Z"/>
      <path class="cls-2" d="M328.84,296.12c-3.53-1.93-7.3-.81-9.78,2.19-3.35,4.06-2.72,9.69,2.99,14.41,5.76,4.76,11.38,4.27,14.71.23,2.46-2.98,2.89-6.88.38-9.97l2.98-3.58c4.02,4.62,4.14,11.08-.14,16.26-5.05,6.12-13.31,6.82-20.85.6-7.53-6.22-8.38-14.49-3.35-20.59,4.12-4.98,10.32-6.49,16.02-3.14l-2.96,3.59Z"/>
      <path class="cls-2" d="M326.4,282.69l11.54-20.64,3.46,1.94-4.65,8.32,23.2,12.97-2.24,4.01-23.2-12.97-4.64,8.31-3.46-1.94Z"/>
      <path class="cls-2" d="M340.19,256.82l3.72-10.54c2.16-6.13,6.51-7.91,10.77-6.41,3.6,1.27,4.62,4.11,4.36,6.99l.28.1c1.16-2.8,4.78-5.03,9.24-3.46,4.41,1.56,6.68,5.76,4.31,12.45l-3.9,11.04-28.79-10.17ZM356.23,251.06c1.03-2.92.07-5.83-2.72-6.81-2.39-.84-4.79.16-6,3.6l-2.1,5.93,8.76,3.09,2.05-5.82ZM369,255.06c1.47-4.17.24-6.46-2.18-7.31-2.74-.97-5.76.42-6.99,3.9l-2.27,6.42,9.22,3.26,2.21-6.27Z"/>
      <path class="cls-2" d="M381.7,222.1c-1.22,7.84-7.98,12.7-17.62,11.2-9.66-1.5-14.62-8.17-13.4-16.01,1.21-7.81,7.96-12.68,17.62-11.19,9.66,1.5,14.61,8.19,13.4,16ZM354.85,217.93c-.81,5.2,2.59,9.7,9.94,10.84,7.36,1.14,11.95-2.12,12.76-7.32.8-5.19-2.59-9.7-9.94-10.84-7.36-1.14-11.95,2.13-12.76,7.32Z"/>
    </g>
    <circle class="cls-4" cx="368" cy="169.4" r="8.42"/>
  </g>
  <g id="Layer_3" data-name="Layer 3">
    <g>
      <g>
        <g id="b2">
          <g id="b">
            <rect class="cls-2" x="72.59" y="113.39" width="58.59" height="39.06" transform="translate(-65.25 143.59) rotate(-56.18)"/>
            <rect class="cls-3" x="61.62" y="126.4" width="68.36" height="4.88" transform="translate(-64.56 136.72) rotate(-56.18)"/>
            <rect class="cls-3" x="73.79" y="134.55" width="68.36" height="4.88" transform="translate(-65.94 150.45) rotate(-56.18)"/>
          </g>
          <g id="b-2" data-name="b">
            <rect class="cls-2" x="251.08" y="232.97" width="58.59" height="39.06" transform="translate(-85.45 344.89) rotate(-56.18)"/>
            <rect class="cls-3" x="240.11" y="245.98" width="68.36" height="4.88" transform="translate(-84.76 338.03) rotate(-56.18)"/>
            <rect class="cls-3" x="252.28" y="254.13" width="68.36" height="4.88" transform="translate(-86.14 351.76) rotate(-56.18)"/>
          </g>
          <rect class="cls-3" x="277.93" y="228.08" width="4.88" height="48.83" transform="translate(-85.44 344.92) rotate(-56.18)"/>
        </g>
        <path class="cls-4" d="M142.45,160.1c18.01-26.88,54.41-34.08,81.29-16.07,26.88,18.01,34.08,54.41,16.07,81.29-18.01,26.88-54.41,34.08-81.29,16.07-26.88-18.01-34.08-54.41-16.07-81.29Z"/>
        <path class="cls-1" d="M142.45,160.1c-9.01,13.44-5.41,31.64,8.03,40.65,13.44,9.01,31.64,5.41,40.65-8.03,9.01-13.44,27.2-17.04,40.65-8.03,13.44,9.01,17.04,27.2,8.03,40.65-18.01,26.88-54.41,34.08-81.29,16.07-26.88-18.01-34.08-54.41-16.07-81.29"/>
      </g>
      <g>
        <g id="b2-2" data-name="b2">
          <g id="b-3" data-name="b">
            <rect class="cls-2" x="82.09" y="222.8" width="39.06" height="58.59" transform="translate(-122.42 98.2) rotate(-33.56)"/>
            <rect class="cls-3" x="93.07" y="221.96" width="4.88" height="68.36" transform="translate(-125.68 95.5) rotate(-33.56)"/>
            <rect class="cls-3" x="105.28" y="213.86" width="4.88" height="68.36" transform="translate(-119.16 100.9) rotate(-33.56)"/>
          </g>
          <g id="b-4" data-name="b">
            <rect class="cls-2" x="261.12" y="104.03" width="39.06" height="58.59" transform="translate(-26.92 177.37) rotate(-33.56)"/>
            <rect class="cls-3" x="272.1" y="103.19" width="4.88" height="68.36" transform="translate(-30.18 174.67) rotate(-33.56)"/>
            <rect class="cls-3" x="284.31" y="95.1" width="4.88" height="68.36" transform="translate(-23.67 180.07) rotate(-33.56)"/>
          </g>
          <rect class="cls-3" x="256.23" y="130.88" width="48.83" height="4.88" transform="translate(-26.92 177.35) rotate(-33.56)"/>
        </g>
        <rect class="cls-2" x="275.76" y="128.44" width="9.77" height="9.77" transform="translate(-26.92 177.39) rotate(-33.56)"/>
        <rect class="cls-3" x="91.85" y="249.65" width="19.53" height="4.88" transform="translate(-122.41 98.18) rotate(-33.56)"/>
      </g>
    </g>
  </g>
</svg>