<?xml version="1.0" encoding="UTF-8"?>
<svg xmlns="http://www.w3.org/2000/svg" version="1.1" viewBox="0 0 800 800">
  <!-- Generator: Adobe Illustrator 29.5.0, SVG Export Plug-In . SVG Version: 2.1.0 Build 137)  -->
  <defs>
    <style>
      .st0 {
        stroke: #a5f3fc;
      }

      .st0, .st1 {
        fill: none;
        stroke-linecap: round;
        stroke-linejoin: round;
        stroke-width: 36px;
      }

      .st1 {
        stroke: #fff;
      }
    </style>
  </defs>
  <g id="Layer_3">
    <line class="st0" x1="301" y1="333.3" x2="579" y2="333.3"/>
  </g>
  <g id="Layer_1">
    <g id="SVGRepo_iconCarrier">
      <g id="Interface__x2F__Shopping_x5F_Cart_x5F_01">
        <path id="Vector" class="st1" d="M566.7,566.7c-36.8,0-66.7,29.8-66.7,66.7s29.8,66.7,66.7,66.7,66.7-29.8,66.7-66.7-29.8-66.7-66.7-66.7ZM566.7,566.7h-256.9c-15.4,0-23.1,0-29.4-2.7-5.6-2.4-10.4-6.3-14-11.2-4-5.6-5.5-13-8.7-27.7l-82-382.9c-3.2-15-4.9-22.5-8.9-28.2-3.5-5-8.4-8.9-14-11.3-6.3-2.7-14-2.7-29.4-2.7h-23.6M200,200h429.1c24.1,0,36.1,0,44.2,5,7.1,4.4,12.3,11.3,14.5,19.3,2.6,9.1-.7,20.7-7.4,43.8l-46.2,160c-4,13.8-6,20.7-10,25.8-3.6,4.5-8.3,8.1-13.6,10.2-6,2.5-13.2,2.5-27.5,2.5h-325.4M266.7,700c-36.8,0-66.7-29.8-66.7-66.7s29.8-66.7,66.7-66.7,66.7,29.8,66.7,66.7-29.8,66.7-66.7,66.7Z"/>
      </g>
    </g>
  </g>
</svg>